<svg xmlns="http://www.w3.org/2000/svg" width="57.663" height="60.882" viewBox="0 0 57.663 60.882">
  <g id="Group_9109" data-name="Group 9109" transform="translate(6082.455 -4079.739)">
    <path id="Path_12028" data-name="Path 12028" d="M-6073.846,4602.968c1.338.006,2.675,0,4.012.025.309.005.326-.152.325-.384-.005-1,.017-2.009-.011-3.011-.012-.421.084-.572.542-.563,1.736.036,3.472.014,5.208.041.369.005.449-.11.446-.459-.015-1.817,0-3.633,0-5.45h1.693c0,1.77.026,3.539-.008,5.308-.011.518.152.615.63.6,1.7-.036,3.409-.015,5.114-.039.374-.005.489.1.476.48-.037,1.018-.024,2.038-.047,3.057-.007.3.067.42.4.418q6.954-.019,13.909-.017l1.061-.008h7.337l1.058.007,5.591.011c.127,0,.255,0,.382,0a.413.413,0,0,1,.435.414.431.431,0,0,1-.347.5,2.151,2.151,0,0,1-.521.039h-55.108c-.354.012-.677-.083-.682-.489-.006-.427.325-.47.678-.47,2.15,0,4.3-.007,6.451-.012Zm8.061.02c.7,0,1.4-.01,2.1.005.267.006.365-.074.358-.35q-.026-.954,0-1.911c.006-.261-.093-.317-.333-.316q-2.078.014-4.155,0c-.239,0-.341.053-.334.316q.026.954,0,1.91c-.008.275.089.357.356.351C-6067.123,4602.977-6066.454,4602.987-6065.786,4602.987Zm6.551-2.567c-.684,0-1.368.013-2.052-.006-.272-.007-.353.078-.345.348.019.636.017,1.273,0,1.908-.006.256.087.322.33.322q2.075-.015,4.149,0c.254,0,.329-.089.324-.332-.011-.636-.018-1.272,0-1.908.009-.287-.1-.342-.36-.336C-6057.868,4600.43-6058.551,4600.42-6059.234,4600.42Z" transform="translate(0 -463.823)" fill="#fff" stroke="#fff" stroke-width="1"/>
    <path id="Path_12029" data-name="Path 12029" d="M-5777.843,4297.52c-2.087-.006-4.174-.022-6.26-.01-.393,0-.5-.1-.5-.5q.023-6.264,0-12.528c0-.4.1-.5.5-.5q9.869.02,19.739,0c.4,0,.5.1.5.5q-.023,6.264,0,12.528c0,.4-.107.5-.5.5-2.087-.013-4.174,0-6.261.01l-.886,0h-5.44Zm3.579-.977c2.978,0,5.956-.007,8.934.01.388,0,.507-.085.506-.492q-.026-5.3,0-10.611c0-.394-.1-.5-.5-.5q-8.91.02-17.821,0c-.39,0-.507.093-.5.5q.025,5.3,0,10.611c0,.4.1.5.5.5C-5780.187,4296.535-5777.226,4296.542-5774.264,4296.542Z" transform="translate(-268.89 -184.241)" fill="#fff" stroke="#fff" stroke-width="1"/>
    <path id="Path_12030" data-name="Path 12030" d="M-6005.641,4099.876a8.352,8.352,0,0,1-3.978.823,9.959,9.959,0,0,1-8.8-5.073,10.216,10.216,0,0,1,7.435-15.282,10.213,10.213,0,0,1,11.524,8.745,9.56,9.56,0,0,1-.459,4.655l-.086.1,0,0c-.386.107-.689.048-.8-.4a12.447,12.447,0,0,0,.437-2.244c.019-.315-.087-.383-.37-.377-.589.014-1.178,0-1.768,0-.244,0-.407-.1-.4-.363s.17-.354.414-.352c.334,0,.67,0,1,0,1.2,0,1.2,0,1.019-1.172a9.326,9.326,0,0,0-8.391-7.713c-.31-.02-.385.075-.378.362.017.589.006,1.179,0,1.769,0,.26.008.555-.353.562s-.366-.274-.362-.543c.005-.4,0-.8,0-1.2,0-.991,0-.991-1-.868a9.358,9.358,0,0,0-7.888,8.44c-.017.31.082.378.367.366.51-.021,1.02-.006,1.529-.006.285,0,.648-.058.664.347.016.422-.353.365-.636.368-.351,0-.7,0-1.051,0-.912,0-.912,0-.793.916a9.3,9.3,0,0,0,8.445,7.976c.316.022.378-.088.369-.369-.016-.572,0-1.146-.007-1.72,0-.257.064-.458.35-.466s.364.208.366.455c0,.575.015,1.148,0,1.722-.01.329.11.395.424.369a12.4,12.4,0,0,0,2.869-.686A.548.548,0,0,1-6005.641,4099.876Z" transform="translate(-56.167 0)" fill="#fff" stroke="#fff" stroke-width="1"/>
    <path id="Path_12031" data-name="Path 12031" d="M-5776.068,4453.909l8.934.019c.717,0,.717,0,.717.734,0,1.323-.008,2.646.006,3.968,0,.289-.07.391-.372.376-.492-.022-.987,0-1.48,0l-1.032,0h-7.368l-1.038,0-12.09-.009c-.127,0-.255.006-.382,0a.432.432,0,0,1-.44-.466.444.444,0,0,1,.444-.468c.142-.012.287,0,.43,0q10.895,0,21.79.014c.5,0,.615-.142.586-.607a15.982,15.982,0,0,1,0-1.958c.029-.479-.086-.635-.605-.632-5.639.021-11.278.013-16.916.013q-2.461,0-4.922,0a1.734,1.734,0,0,1-.474-.036.431.431,0,0,1-.337-.462.444.444,0,0,1,.409-.452,3.1,3.1,0,0,1,.381-.006l6.546-.02.886,0h5.44Z" transform="translate(-263.452 -337.896)" fill="#fff" stroke="#fff" stroke-width="1"/>
    <path id="Path_12032" data-name="Path 12032" d="M-5944.617,4352.406c0-1.53,0-3.061,0-4.591a4.6,4.6,0,0,1,4.818-4.81,32.912,32.912,0,0,1,4.3.069,4.773,4.773,0,0,1,4.154,4.7c.031,3.188.017,6.375,0,9.563a2.092,2.092,0,0,1-2.235,2.209c-.573.006-1.147,0-1.721,0-.321,0-.59-.09-.59-.465s.255-.485.58-.488c.542,0,1.083,0,1.625,0,.939-.008,1.34-.406,1.34-1.338,0-3.076-.058-6.153.021-9.229a3.889,3.889,0,0,0-3.538-4.022,27.543,27.543,0,0,0-4.724.043,3.529,3.529,0,0,0-3.057,3.41c-.034,3.314-.017,6.631-.01,9.945a1.139,1.139,0,0,0,1.171,1.187c.51.015,1.02,0,1.529.01.319,0,.592.118.581.486s-.277.468-.6.465c-.542,0-1.084.011-1.625-.006a2.017,2.017,0,0,1-2.009-2.019c-.022-1.705-.006-3.411-.006-5.116Z" transform="translate(-124.191 -237.575)" fill="#fff" stroke="#fff" stroke-width="1"/>
    <path id="Path_12033" data-name="Path 12033" d="M-5942.587,4542.27h-1.693c-1.828,0-3.658-.015-5.486,0-.425,0-.562-.141-.542-.552.045-.969-.064-1.941.066-2.907a2.157,2.157,0,0,1,2.145-1.92c1.272-.021,2.544-.011,3.816-.013l2.113.005c1.112,0,2.225-.005,3.338,0a2.223,2.223,0,0,1,2.341,2.338c.012.842-.013,1.686.009,2.528.01.4-.139.52-.528.517C-5938.868,4542.259-5940.727,4542.269-5942.587,4542.27Zm-.815-.961c1.768,0,3.537-.016,5.3.011.5.007.645-.162.614-.634-.034-.524,0-1.051-.01-1.577a1.2,1.2,0,0,0-1.229-1.252q-4.66-.021-9.319,0a1.206,1.206,0,0,0-1.249,1.238c-.019.542.02,1.084-.014,1.625-.028.46.14.6.6.6C-5946.938,4541.3-5945.169,4541.309-5943.4,4541.309Z" transform="translate(-119.045 -412.927)" fill="#fff" stroke="#fff" stroke-width="1"/>
    <path id="Path_12034" data-name="Path 12034" d="M-5885.326,4435.914l-2.112-.007c0-3.426,0-6.854-.013-10.28,0-.312.088-.422.4-.4a12.478,12.478,0,0,0,1.338,0c.323-.018.4.107.4.413-.012,1.307,0,2.614-.006,3.92Q-5885.318,4432.734-5885.326,4435.914Z" transform="translate(-175.887 -311.953)" fill="#fff" stroke="#fff" stroke-width="1"/>
    <path id="Path_12035" data-name="Path 12035" d="M-5655.743,4507.18l1.038,0q0,8.873-.006,17.744c0,.095.014.189.02.285l-1.061.008c.012-.174.035-.349.035-.523q0-8.522,0-17.043C-5655.718,4507.5-5655.734,4507.338-5655.743,4507.18Z" transform="translate(-385.409 -386.068)" fill="#fff" stroke="#fff" stroke-width="1"/>
    <path id="Path_12036" data-name="Path 12036" d="M-5568,4507.181h1.032c-.009.207-.026.413-.026.619q0,8.378,0,16.756c0,.222.022.444.034.666l-1.058-.007c.011-.238.033-.476.033-.714q0-7.419,0-14.839C-5567.982,4508.835-5567.993,4508.008-5568,4507.181Z" transform="translate(-464.748 -386.068)" fill="#fff" stroke="#fff" stroke-width="1"/>
    <path id="Path_12037" data-name="Path 12037" d="M-6038.044,4459.123c-.955,0-1.91-.02-2.865-.007-.293,0-.38-.08-.377-.375q.022-2.15,0-4.3c0-.3.065-.411.392-.409,2.15.015,4.3.011,6.449.006.332,0,.59.105.593.461,0,.38-.271.5-.619.5-1.767,0-3.535.019-5.3-.014-.47-.008-.587.12-.563.574.042.731.03,1.466,0,2.2-.012.344.107.421.431.418,1.735-.015,3.472-.007,5.207-.007.112,0,.222,0,.333,0,.341-.009.569.134.557.494-.012.331-.227.453-.55.451-.907,0-1.814.008-2.722.014Z" transform="translate(-36.776 -338.007)" fill="#fff" stroke="#fff" stroke-width="1"/>
    <path id="Path_12038" data-name="Path 12038" d="M-6007.471,4507.226l.968,0q0,9.012,0,18.024l-.979,0c0-1.844.015-3.689.015-5.533Q-6007.464,4513.475-6007.471,4507.226Z" transform="translate(-67.35 -386.11)" fill="#fff" stroke="#fff" stroke-width="1"/>
    <path id="Path_12039" data-name="Path 12039" d="M-5869.56,4218.121c.112.446.415.5.8.4a7.8,7.8,0,0,1-1.634,3.042,9.313,9.313,0,0,1-4,2.992.549.549,0,0,0-.31-.852,11.507,11.507,0,0,0,2.682-1.783A10.013,10.013,0,0,0-5869.56,4218.121Z" transform="translate(-187.415 -124.677)" fill="#fff" stroke="#fff" stroke-width="1"/>
    <path id="Path_12040" data-name="Path 12040" d="M-5713.078,4428.045l-.886-.005v-2.733l.887,0Q-5713.077,4426.673-5713.078,4428.045Z" transform="translate(-332.77 -312.027)" fill="#fff" stroke="#fff" stroke-width="1"/>
    <path id="Path_12041" data-name="Path 12041" d="M-5646.98,4428.042l-.886,0V4425.3l.886,0Z" transform="translate(-392.54 -312.028)" fill="#fff" stroke="#fff" stroke-width="1"/>
    <path id="Path_12042" data-name="Path 12042" d="M-5812.638,4221.348c.029-.035.058-.068.088-.1C-5812.58,4221.279-5812.609,4221.313-5812.638,4221.348Z" transform="translate(-243.54 -127.502)" fill="#fff" stroke="#fff" stroke-width="1"/>
    <path id="Path_12043" data-name="Path 12043" d="M-5925.565,4137.59a.311.311,0,0,1,.3.114c.253.374.434.173.655-.051q2.12-2.14,4.255-4.264a2.8,2.8,0,0,1,.274-.265.284.284,0,0,1,.391,0,.27.27,0,0,1-.055.349c-.088.093-.178.183-.268.273-1.442,1.443-2.879,2.891-4.331,4.322-.235.231-.247.35,0,.588.751.735,1.465,1.507,2.2,2.256.158.162.313.359.146.528-.2.2-.361-.032-.5-.18-.74-.768-1.491-1.526-2.216-2.309-.213-.23-.335-.206-.515.01a4.645,4.645,0,0,1-.474.472.243.243,0,0,1-.308.048.248.248,0,0,1-.045-.344,1.353,1.353,0,0,1,.282-.319c.272-.251.583-.472.122-.849A.211.211,0,0,1-5925.565,4137.59Z" transform="translate(-140.929 -47.744)" fill="#fff" stroke="#fff" stroke-width="1"/>
  </g>
</svg>
