<svg xmlns="http://www.w3.org/2000/svg" width="42.344" height="40.697" viewBox="0 0 42.344 40.697">
  <g id="Group_9108" data-name="Group 9108" transform="translate(6082.551 -1963.969)">
    <path id="Path_12025" data-name="Path 12025" d="M-6069.534,1988.083q2.156-1.094,4.312-2.188,1.752-.892,3.5-1.8a.477.477,0,0,1,.483,0c5.47,2.681,10.889,5.466,16.307,8.249,1.383.71,2.767,1.42,4.156,2.118a.475.475,0,0,1,.32.5q-.082,3.309-.133,6.62c0,.309-.119.256-.307.159q-1.5-.775-3-1.543c-.341-.175-.357-.168-.337.223.162,3.248.331,6.495.487,9.743a23.29,23.29,0,0,1,.014,4.175,11.479,11.479,0,0,1-2.777,6.524,5.691,5.691,0,0,1-4.431,1.981c-2.974-.037-5.947-.014-8.921,0-.3,0-.426-.07-.389-.385s-.127-.715.062-.911c.207-.215.619-.061.939-.072.592-.019,1.184-.019,1.774-.027a8.294,8.294,0,0,0,1.4,0c.139.009.275.026.415.026,1.521,0,3.044-.033,4.563.011a4.545,4.545,0,0,0,3.834-1.837,10.84,10.84,0,0,0,2.246-7.265c-.036-2.053-.2-4.1-.309-6.157-.11-2.18-.221-4.36-.318-6.541a.6.6,0,0,0-.377-.581q-7.548-3.85-15.084-7.726a.566.566,0,0,0-.582.026q-5.883,3.02-11.77,6.032c-.887.455-1.766.923-2.648,1.385a11.012,11.012,0,0,0-1.294.653l-4.247,2.158c-.062.032-.127.061-.185.1-.223.14-.335.148-.335-.183,0-.731-.04-1.462-.054-2.193-.027-1.451-.041-2.9-.077-4.354a.494.494,0,0,1,.32-.534c1.441-.721,2.874-1.462,4.308-2.2.1-.051.227-.073.265-.206a.386.386,0,0,0,.293-.075q1.806-.925,3.608-1.852Q-6071.521,1989.11-6069.534,1988.083Zm27.54,11.541.137-.03c0-1.311,0-2.621,0-3.932,0-.2-.123-.251-.259-.32-6.336-3.232-12.644-6.521-19.029-9.655a.634.634,0,0,0-.644-.013q-6.532,3.359-13.072,6.7l-5.793,2.969c-.121.062-.253.1-.252.288,0,1.321,0,2.642,0,3.935a.368.368,0,0,0,.354-.057q3.58-1.828,7.158-3.662,5.887-3.014,11.772-6.031a.457.457,0,0,1,.478,0c.781.41,1.569.805,2.353,1.207l13.044,6.682Q-6043.869,1998.669-6041.994,1999.624Z" transform="translate(0 -18.432)" fill="#fff" stroke="#fff" stroke-width="0.5"/>
    <path id="Path_12026" data-name="Path 12026" d="M-6012.135,2196.506a11.03,11.03,0,0,1,1.294-.653c.156.155.094.352.094.53q0,10.793,0,21.587c0,.508,0,.509.52.509h8.329c.491,0,.491,0,.492-.5q0-6.922-.008-13.845c0-.355.1-.454.452-.45,1.544.018,3.089.008,4.635.008a5.38,5.38,0,0,1,5.508,5.514q0,4.638,0,9.276a8.219,8.219,0,0,1-1.4,0c0-3.081.019-6.162,0-9.242a4,4,0,0,0-2.819-3.959,3.926,3.926,0,0,0-1.266-.2c-1.116.007-2.23.01-3.346,0-.291,0-.376.093-.376.38q.012,6.313,0,12.625c0,.336.12.411.425.406.86-.016,1.721,0,2.58-.01.293,0,.413.081.414.394,0,1,.013,1-.975,1h-14.083c-.473,0-.473,0-.473-.484Q-6012.134,2207.946-6012.135,2196.506Z" transform="translate(-65.268 -215.465)" fill="#fff" stroke="#fff" stroke-width="0.5"/>
    <path id="Path_12027" data-name="Path 12027" d="M-6004.329,1969.651q-1.986,1.026-3.972,2.051-1.8.928-3.607,1.852a.391.391,0,0,1-.294.075q0-4.459.005-8.918c0-.484,0-.485.467-.485,2.321,0,4.642.007,6.963-.008.351,0,.456.1.451.451C-6004.335,1966.33-6004.327,1967.99-6004.329,1969.651Zm-6.479-.637c0,1,0,2,0,3,0,.382.019.394.361.219,1.488-.763,2.973-1.533,4.464-2.29a.449.449,0,0,0,.271-.468c-.006-1.162-.011-2.324,0-3.486,0-.294-.1-.377-.385-.375q-2.161.016-4.32,0c-.307,0-.4.1-.4.4C-6010.8,1967.014-6010.808,1968.014-6010.808,1969.013Z" transform="translate(-65.206 0)" fill="#fff" stroke="#fff" stroke-width="0.5"/>
  </g>
</svg>
