<svg xmlns="http://www.w3.org/2000/svg" width="57.255" height="44.7" viewBox="0 0 57.255 44.7">
  <g id="Group_9106" data-name="Group 9106" transform="translate(6082.855 48.694)">
    <path id="Path_12017" data-name="Path 12017" d="M-6067.524-33.547c0,1.758-.014,3.517.01,5.275.006.46-.144.606-.586.568a7.514,7.514,0,0,0-1.166,0c-.374.026-.481-.125-.484-.483-.017-1.679-.056-3.359-.086-5.038q-.045-2.472-.088-4.944A1.967,1.967,0,0,0-6071.7-40.2a2.088,2.088,0,0,0-2.488,2.076c.014,3.265-.1,6.531-.163,9.8-.013.619-.024.619-.635.62-.357,0-.716-.021-1.072.006-.386.029-.509-.111-.506-.5.015-2.505.011-5.01.005-7.516a30.316,30.316,0,0,0-.073-3.31,6.091,6.091,0,0,0-.121-.782c-.148-.609-.523-.773-1.082-.474a3.1,3.1,0,0,0-1.059,1.033,14.463,14.463,0,0,0-2,4.894,18.566,18.566,0,0,0-.507,5.926,8.248,8.248,0,0,0,3.744,6.269,11.163,11.163,0,0,0,1.984,1.126c.205.09.336.183.316.44-.149,1.968-.3,3.937-.423,5.906-.027.408-.228.431-.55.407-.385-.028-.384-.243-.361-.544.129-1.736.235-3.474.368-5.21.023-.3-.167-.364-.357-.463a11.5,11.5,0,0,1-3.6-2.84,8.549,8.549,0,0,1-2.028-5.069,19.974,19.974,0,0,1,2.007-10.229,6.77,6.77,0,0,1,1.462-2.036,2.6,2.6,0,0,1,.9-.56,1.465,1.465,0,0,1,1.978.942,6.527,6.527,0,0,1,.3,2.162c.011,2.925,0,5.851,0,8.776,0,.124,0,.249,0,.373.009.154,0,.341.229.327.2-.013.171-.191.173-.323.016-1.011,0-2.024.044-3.033.1-2.113.076-4.229.121-6.342a3,3,0,0,1,3.5-2.747,2.881,2.881,0,0,1,2.577,3.066c.027,2.629.072,5.257.114,7.885.006.4.037.807.059,1.211.008.146.028.293.226.285.173-.007.178-.145.183-.27s0-.28,0-.42q0-4.6,0-9.2a5.481,5.481,0,0,1,.27-1.744,1.424,1.424,0,0,1,1.877-.978,3.312,3.312,0,0,1,1.764,1.454,15.734,15.734,0,0,1,2.269,5.683,16.759,16.759,0,0,1,.3,6.758,9.554,9.554,0,0,1-5.144,6.677c-.756.428-.735.405-.66,1.295.133,1.58.225,3.163.331,4.745.177,2.652.362,5.3.523,7.956.1,1.614.165,3.23.229,4.845a7.143,7.143,0,0,1,.024,1.3,2.24,2.24,0,0,1-1.571,1.9,8.31,8.31,0,0,1-3.6.23c-.393-.03-.229-.372-.258-.591-.034-.251.117-.315.343-.309a11.8,11.8,0,0,0,2.371.018,3.675,3.675,0,0,0,1.069-.3,1.208,1.208,0,0,0,.728-1.151c0-2.023-.14-4.04-.268-6.057q-.148-2.35-.3-4.7c-.2-2.994-.387-5.988-.6-8.98a.5.5,0,0,1,.362-.584,9.452,9.452,0,0,0,5.182-5.163,10.079,10.079,0,0,0,.528-4.23,20.558,20.558,0,0,0-1.382-6.543,9.311,9.311,0,0,0-1.442-2.6c-.369-.441-.787-.975-1.43-.762-.623.207-.562.9-.574,1.411-.041,1.8-.016,3.609-.016,5.414Z" transform="translate(0 -6.197)" fill="#fff" stroke="#fff" stroke-width="1"/>
    <path id="Path_12018" data-name="Path 12018" d="M-5837.255-12.217c0-1.416.007-2.831-.005-4.247,0-.345.082-.507.465-.512s.461.156.459.5q-.018,3.617,0,7.234a9.578,9.578,0,0,1-.033,1.718,3.428,3.428,0,0,1-3.535,3.013,30.418,30.418,0,0,1-3.586-.094,2.5,2.5,0,0,1-2.479-2.185,12.817,12.817,0,0,1-.022-4.04c.257-2.582.54-5.161.806-7.743.121-1.175.218-2.352.345-3.526a.771.771,0,0,0-.312-.757,15.417,15.417,0,0,1-5.208-7.567,11.582,11.582,0,0,1,.671-8.278,18.917,18.917,0,0,1,7.939-8.654,6.492,6.492,0,0,1,2.089-.774,2.472,2.472,0,0,1,2.908,1.613,7.25,7.25,0,0,1,.416,2.424c.01.321-.162.357-.408.352s-.515.022-.507-.363a5.755,5.755,0,0,0-.2-1.662,1.726,1.726,0,0,0-2.423-1.39,10.462,10.462,0,0,0-3.44,1.922,17.5,17.5,0,0,0-5.662,7.163,10.874,10.874,0,0,0,.82,10.4,15.668,15.668,0,0,0,3.928,4.385.71.71,0,0,1,.324.706c-.178,1.872-.362,3.743-.516,5.617-.242,2.926-.778,5.825-.795,8.771a5.626,5.626,0,0,0,.176,1.43,1.435,1.435,0,0,0,1.236,1.177,16.415,16.415,0,0,0,4.413.087,2.315,2.315,0,0,0,2.129-2.43c.044-1.43.01-2.862.01-4.293Z" transform="translate(-209.887 0)" fill="#fff" stroke="#fff" stroke-width="1"/>
    <path id="Path_12019" data-name="Path 12019" d="M-5701.332-17.607a5.117,5.117,0,0,0,.366,3.516,2.382,2.382,0,0,1-.619,2.423,4.126,4.126,0,0,0-1.1,2.452,2.613,2.613,0,0,1-1.89,2.324,4.412,4.412,0,0,0-2.237,1.648,2.59,2.59,0,0,1-2.687,1.017,4.122,4.122,0,0,0-2.633.232,2.689,2.689,0,0,1-3.116-.493,3.893,3.893,0,0,0-2.288-1.02,2.7,2.7,0,0,1-2.454-1.99,3.948,3.948,0,0,0-1.47-2.034,2.752,2.752,0,0,1-1.132-3,3.644,3.644,0,0,0-.241-2.4,2.766,2.766,0,0,1,.507-3.2,3.621,3.621,0,0,0,.976-2.16,2.8,2.8,0,0,1,2.091-2.584,3.71,3.71,0,0,0,1.946-1.431,2.7,2.7,0,0,1,2.9-1.148,3.95,3.95,0,0,0,2.543-.246,2.778,2.778,0,0,1,3.229.579,3.29,3.29,0,0,0,1.992.9,2.872,2.872,0,0,1,2.705,2.2,3.631,3.631,0,0,0,1.479,1.912A2.874,2.874,0,0,1-5701.332-17.607Zm-.917-.169a1.75,1.75,0,0,0-.8-1.644,4.506,4.506,0,0,1-1.824-2.509,1.853,1.853,0,0,0-1.714-1.366,4.292,4.292,0,0,1-2.674-1.175,1.945,1.945,0,0,0-2.364-.365,4.093,4.093,0,0,1-2.816.281,1.916,1.916,0,0,0-2.168.809,4.422,4.422,0,0,1-2.448,1.754,1.849,1.849,0,0,0-1.383,1.7,4.441,4.441,0,0,1-1.212,2.757,1.882,1.882,0,0,0-.355,2.243,4.375,4.375,0,0,1,.3,2.955,1.8,1.8,0,0,0,.7,1.987,5.13,5.13,0,0,1,1.941,2.712,1.679,1.679,0,0,0,1.522,1.208,4.758,4.758,0,0,1,2.926,1.282,1.821,1.821,0,0,0,2.164.317,4.41,4.41,0,0,1,2.994-.3,1.816,1.816,0,0,0,2.021-.745,4.623,4.623,0,0,1,2.544-1.852,1.806,1.806,0,0,0,1.327-1.64,4.627,4.627,0,0,1,1.291-2.872,1.775,1.775,0,0,0,.334-2.041,4.261,4.261,0,0,1-.34-3.034A2.3,2.3,0,0,0-5702.249-17.776Z" transform="translate(-325.668 -21.182)" fill="#fff" stroke="#fff" stroke-width="1"/>
    <path id="Path_12020" data-name="Path 12020" d="M-5606.229,195.41a11.145,11.145,0,0,0,2.249.369,3.245,3.245,0,0,0,2.911-1.1,4.439,4.439,0,0,1,3.3-1.5.381.381,0,0,1,.46.271c.774,2.031,1.572,4.05,2.456,6.037a1.587,1.587,0,0,1-1.706,2.261,13.518,13.518,0,0,0-1.58-.063,1.906,1.906,0,0,0-1.46.8,10.851,10.851,0,0,1-.916,1.055,2.032,2.032,0,0,1-2.647.029.726.726,0,0,1-.183-.317q-1.425-3.817-2.845-7.635A1.7,1.7,0,0,1-5606.229,195.41Zm1.359,1.19c.059.173.1.3.146.432q1,2.706,2.006,5.411a.957.957,0,0,0,1.73.339,9.309,9.309,0,0,0,.662-.782,2.88,2.88,0,0,1,2.5-1.2c.45.012.9.054,1.347.073.754.031,1.116-.445.8-1.128-.822-1.759-1.52-3.568-2.211-5.38-.09-.237-.2-.286-.453-.232a3.893,3.893,0,0,0-2.284,1.336,3.1,3.1,0,0,1-2.117,1.13A10.987,10.987,0,0,1-5604.871,196.6Z" transform="translate(-431.425 -219.514)" fill="#fff" stroke="#fff" stroke-width="1"/>
    <path id="Path_12021" data-name="Path 12021" d="M-5719.569,191.721c-.533,1.42-1.023,2.725-1.511,4.032q-.65,1.746-1.3,3.493a1.823,1.823,0,0,1-2.927.68,9.84,9.84,0,0,1-.69-.757,3,3,0,0,0-2.68-1.115,4.137,4.137,0,0,0-.6.052,1.63,1.63,0,0,1-1.665-2.438c.532-1.089.979-2.216,1.423-3.343.319-.809.638-1.618.935-2.435a.458.458,0,0,1,.538-.369,4.683,4.683,0,0,1,3.361,1.591,2.768,2.768,0,0,0,2.2,1.016A8.935,8.935,0,0,0-5719.569,191.721Zm-4.537,7.8c.448-.017.816-.133.943-.644a8.478,8.478,0,0,1,.318-.875c.574-1.542,1.143-3.087,1.73-4.624.13-.341.069-.437-.3-.4s-.744.011-1.118.013a3.342,3.342,0,0,1-2.777-1.262,3.783,3.783,0,0,0-2.05-1.215c-.354-.095-.521-.023-.656.338-.634,1.7-1.284,3.4-2.066,5.04a.973.973,0,0,0-.055,1.055c.245.356.6.313.963.27a4.04,4.04,0,0,1,3.494,1.021c.289.281.542.6.81.9A.952.952,0,0,0-5724.105,199.517Z" transform="translate(-318.398 -215.869)" fill="#fff" stroke="#fff" stroke-width="1"/>
    <path id="Path_12022" data-name="Path 12022" d="M-6030,265.466c.2-3.086.4-6.172.59-9.259.023-.365.107-.505.52-.454.361.044.381.2.363.484-.139,2.078-.28,4.157-.4,6.236q-.169,2.909-.3,5.82a1.491,1.491,0,0,0,1.312,1.7,7.805,7.805,0,0,0,2.413.078c.195-.013.468-.147.44.247-.021.281.133.627-.4.637a10.735,10.735,0,0,1-2.6-.1,2.344,2.344,0,0,1-2.038-2.545c0-.171,0-.343,0-.513.035-.776.073-1.552.111-2.328Z" transform="translate(-47.368 -275.527)" fill="#fff" stroke="#fff" stroke-width="1"/>
    <path id="Path_12023" data-name="Path 12023" d="M-5681.946,14.265a7.528,7.528,0,0,1,7.509,7.65,7.545,7.545,0,0,1-7.659,7.411,7.573,7.573,0,0,1-7.408-7.537A7.563,7.563,0,0,1-5681.946,14.265Zm-.037,13.979a6.451,6.451,0,0,0,6.464-6.352,6.479,6.479,0,0,0-6.449-6.568,6.515,6.515,0,0,0-6.453,6.486A6.47,6.47,0,0,0-5681.983,28.244Z" transform="translate(-355.854 -57.672)" fill="#fff" stroke="#fff" stroke-width="1"/>
    <path id="Path_12024" data-name="Path 12024" d="M-5647.651,69.815a.791.791,0,0,1,.65.337c.424.454.857.9,1.264,1.369.185.212.283.195.464,0,1.121-1.227,2.257-2.443,3.386-3.662.105-.114.207-.232.318-.34a.684.684,0,0,1,1-.047.666.666,0,0,1-.019,1q-2.175,2.369-4.361,4.728a.669.669,0,0,1-1.087.021c-.689-.737-1.367-1.487-2.053-2.227a.689.689,0,0,1-.145-.816A.589.589,0,0,1-5647.651,69.815Z" transform="translate(-393.49 -105.731)" fill="#fff" stroke="#fff" stroke-width="1"/>
  </g>
</svg>
