<svg xmlns="http://www.w3.org/2000/svg" width="95.39" height="38.632" viewBox="0 0 95.39 38.632">
    <defs>
        <style>
            .cls-1{fill:#8a9ab1}
        </style>
    </defs>
    <g id="C6lXZO.tif">
        <g id="Group_9100" data-name="Group 9100">
            <path id="Path_11923" data-name="Path 11923" class="cls-1" d="M-3403.607 1342.868c-6.549 0-13.1-.01-19.646.012a3.1 3.1 0 0 1-2.068-.866c-.209-.175-.358-.184-.6.018a2.885 2.885 0 0 1-1.706.829c-.921.036-1.844.01-2.766.009a2.4 2.4 0 0 1-1.532-.78c-.285-.243-.414-.293-.724-.026a2.529 2.529 0 0 1-1.676.808c-.672-.008-1.344 0-2.016 0-.529 0-.628.087-.648.621-.015.405 0 .812-.009 1.218a.7.7 0 0 1-.788.78c-2.438.006-4.877.018-7.314-.014a3.488 3.488 0 0 1-1.979-.889c-.307-.226-.473-.57-.793-.765-.039-.023-.092-.063-.094-.1-.049-.645-.565-1.145-.568-1.8q-.008-2.272 0-4.543a.788.788 0 0 1 .782-.921 4.006 4.006 0 0 1 .933-.033c.43.032.7.391.714.951.018.968.063 1.94-.009 2.9a3.8 3.8 0 0 0 .544 2.039 1.245 1.245 0 0 0 .946.656c1.466.157 2.936.04 4.4.083.481.014.513-.275.513-.64q-.008-4.075 0-8.15c0-.156 0-.312.005-.468.051-.794.39-1.134 1.188-1.127.434 0 .915-.146 1.262.3a1.177 1.177 0 0 1 .266.775c-.008 1.264.007 2.529-.008 3.794-.007.549.075 1.088.115 1.632a1.486 1.486 0 0 0 2.108 1.2 1.164 1.164 0 0 0 .795-1.043c.149-1.809.041-3.619.074-5.428.018-.955.272-1.222 1.229-1.228h.8c.568.016.756.185.786.76.025.467.012.937.012 1.4v3.935a1.716 1.716 0 0 0 1.649 1.666h.8a1.253 1.253 0 0 0 1.385-1.389c.011-1.733 0-3.466.006-5.2 0-.975.2-1.17 1.188-1.181h.375c.724.01.88.156.883.888.007 1.655.063 3.313-.017 4.964a1.924 1.924 0 0 0 1.8 1.824c.155.013.313 0 .469 0h36.622c.7 0 .707 0 .708-.7v-5.574a3.342 3.342 0 0 1 .037-.606c.1-.556.289-.7.857-.711q.4-.005.8 0c.565.007.717.134.8.69a3.4 3.4 0 0 1 .024.514v7.963c-.029.806-.175.951-.98.951z" transform="translate(3448.62 -1328.172)"/>
            <path id="Path_11924" data-name="Path 11924" class="cls-1" d="M-3300.475 1449.86c-.391 0-.782.01-1.172 0a1.708 1.708 0 0 1-1.226-.363.59.59 0 0 0-.255-.11 6.348 6.348 0 0 1-3.02-2.076 12.815 12.815 0 0 1-1.377-2.282 1.411 1.411 0 0 1-.137-.959c.068-.409.344-.542.724-.382a.827.827 0 0 0 .884-.082.982.982 0 0 1 .313-.2c.654-.172.887-.746 1.151-1.254.151-.291.3-.478.625-.434a1.587 1.587 0 0 0 1.371-.581c.358-.407.779-1.016.5-1.61-.3-.637.11-.963.422-1.277a2.193 2.193 0 0 0 .587-2.655c-.149-.353.113-.492.333-.544a3.252 3.252 0 0 1 2.057.176 2.947 2.947 0 0 0 .647.238 5 5 0 0 1 1.758.871 5.161 5.161 0 0 1 1.585 1.349c.363.524.633 1.13.973 1.646a8.56 8.56 0 0 1 .679 2.181 3.351 3.351 0 0 1-.036 2.115 1.431 1.431 0 0 0-.128.4 4.894 4.894 0 0 1-1.259 2.988 6.932 6.932 0 0 1-2.167 1.9c-.554.3-1.17.426-1.706.776a3.177 3.177 0 0 1-1.7.181h-.422zm.145-5.61a1.515 1.515 0 0 0 1.548-1.6 1.64 1.64 0 0 0-1.532-1.6 1.614 1.614 0 0 0-1.511 1.655 1.482 1.482 0 0 0 1.495 1.545z" transform="translate(3334.215 -1411.271)"/>
            <path id="Path_11925" data-name="Path 11925" class="cls-1" d="M-3448.977 1444.366v-6.042c0-.786.144-.943.931-.93a31.7 31.7 0 0 1 4.586.1 5.379 5.379 0 0 1 1.906.773 6.445 6.445 0 0 1 1.043.732c.434.4.832.847 1.241 1.277.454.477.529 1.167.934 1.674a.37.37 0 0 1 .082.216c-.02.864.432 1.669.33 2.536a8.45 8.45 0 0 1-.375 2.2 7.648 7.648 0 0 1-1.844 2.839 20.088 20.088 0 0 1-2.1 1.416.1.1 0 0 1-.042.021 20.006 20.006 0 0 1-2.431.557c-1.124-.032-2.25 0-3.376-.01-.589 0-.775-.168-.861-.754a3.969 3.969 0 0 1-.026-.56q0-3.023.002-6.045zm2.523.079v4.026c0 .292.029.538.412.531a5.969 5.969 0 0 0 3.385-.583 3.663 3.663 0 0 0 1.572-1.7.6.6 0 0 1 .177-.267.713.713 0 0 0 .276-.657 4.687 4.687 0 0 1 .03-.7 4.085 4.085 0 0 0-.958-3.5 4.428 4.428 0 0 0-3.477-1.69h-.8c-.588 0-.616.029-.617.6q-.004 1.975-.001 3.941z" transform="translate(3448.978 -1413.224)"/>
            <path id="Path_11926" data-name="Path 11926" class="cls-1" d="M-3060.747 1338.779v4.5a1.416 1.416 0 0 1-.319 1.046.516.516 0 0 0-.131.292c-.043.631-.513.959-.939 1.3a4.563 4.563 0 0 1-3.239.816 5.294 5.294 0 0 1-1.6-.465c-.468-.19-.33-.665-.32-1.036.01-.4-.181-.88.284-1.152a1.208 1.208 0 0 1 .824-.1 10.766 10.766 0 0 0 1.917.056 1.116 1.116 0 0 0 .454-.1.679.679 0 0 0 .408-.531c0-.2-.316-.163-.478-.163a7.467 7.467 0 0 1-2.333-.565 4.381 4.381 0 0 1-2.754-2.431 6.01 6.01 0 0 1-.4-2.439 2.039 2.039 0 0 1 .32-1.235 6.086 6.086 0 0 1 .634-1.166 3.62 3.62 0 0 1 .907-.835 3.535 3.535 0 0 0 .678-.526c.641-.548 1.507-.359 2.165-.789a1.334 1.334 0 0 1 .736-.091h2.2c.731 0 .976.23.984.983.012 1.124 0 2.248 0 3.372v1.264zm-2.442-.652c0-.639.008-1.277 0-1.916-.008-.5-.178-.66-.632-.513-.755.244-1.6.218-2.232.845a3.163 3.163 0 0 0-.877 1.506c-.14.56.242.953.447 1.41a1.439 1.439 0 0 0 .795.774 6.588 6.588 0 0 0 2.021.334c.332 0 .486-.143.482-.478-.015-.654-.005-1.308-.004-1.962z" transform="translate(3140.65 -1328.581)"/>
            <path id="Path_11927" data-name="Path 11927" class="cls-1" d="M-2987.978 1450.705h-1.359a1.407 1.407 0 0 1-1.045-.327.529.529 0 0 0-.293-.129 3.363 3.363 0 0 1-1.636-.9 2.651 2.651 0 0 0-.227-.16.806.806 0 0 1-.029-1.449c.231-.132.3-.39.534-.507a1.354 1.354 0 0 1 1.523.22 3.719 3.719 0 0 0 1.929.808c.374.02.753-.026 1.124.015a1.364 1.364 0 0 0 1.32-.712 1.778 1.778 0 0 0-.025-1.84 3.541 3.541 0 0 0-.936-.776 14.422 14.422 0 0 0-2.282-.855c-.473-.232-.965-.47-1.42-.732a3.523 3.523 0 0 1-1.008-.986c-.8-1.075-.5-2.275-.487-3.43.008-.606.5-1.065.854-1.547.33-.444.891-.552 1.265-.923a.213.213 0 0 1 .121-.067c1.013-.046 1.984-.773 3.039-.177a.835.835 0 0 0 .414.048 3.476 3.476 0 0 1 2.051.861c.193.13.4.245.589.376.164.112.313.261.156.463a14.244 14.244 0 0 1-.925 1.484c-.219.222-.363.332-.664.124a3.715 3.715 0 0 0-2.221-.873c-.344.01-.688-.008-1.031.017a1.412 1.412 0 0 0-1.122 2.073 1 1 0 0 0 .569.576c.606.112 1.06.589 1.684.628a1.093 1.093 0 0 1 .807.318.807.807 0 0 0 .282.155 4.717 4.717 0 0 1 2.416 1.963 5.157 5.157 0 0 1 .776 2.271.96.96 0 0 1-.2.7.568.568 0 0 0-.136.292 3.178 3.178 0 0 1-1.4 2.25 2.532 2.532 0 0 1-1.979.761 6.06 6.06 0 0 0-1.03-.01z" transform="translate(3078.614 -1412.114)"/>
            <path id="Path_11928" data-name="Path 11928" class="cls-1" d="M-3132.37 1437.512h4.405c.679 0 .778.109.781.8 0 .359.006.718 0 1.077-.011.5-.135.636-.647.643-.891.012-1.781 0-2.671.005-.6 0-.619.031-.554.6a5.045 5.045 0 0 1 .023.56v9.129a2.1 2.1 0 0 1-.03.559c-.208.737-.444 1.181-1.284.979a1.988 1.988 0 0 0-.421-.016c-.737-.013-.97-.235-.978-.991-.012-1.139 0-2.278 0-3.417v-6.789c0-.587-.029-.615-.6-.617h-2.3c-.861 0-1.128-.266-1.131-1.108v-.515a.828.828 0 0 1 .91-.895c1.497-.008 2.997-.004 4.497-.004z" transform="translate(3196.21 -1413.345)"/>
            <path id="Path_11929" data-name="Path 11929" class="cls-1" d="M-2989.382 1342.967h-3.845c-.76 0-1.041-.284-1.067-1.039a1.266 1.266 0 0 0-.017-.28c-.242-.913.2-1.2 1.081-1.2h5.439c.621 0 .782-.133.8-.757a15.753 15.753 0 0 0-.183-3.452.6.6 0 0 0-.447-.528 4.311 4.311 0 0 0-1.377-.233c-1.031.018-2.063.01-3.095 0a1.061 1.061 0 0 1-1.172-1.187v-.421a1 1 0 0 1 1.168-1.088c1.327.127 2.658-.011 3.981.086a4.2 4.2 0 0 1 2.656 1.061 1.754 1.754 0 0 1 .742 1.538.445.445 0 0 0 .049.317 2.445 2.445 0 0 1 .313 1.707c.007 1.437 0 2.873 0 4.31 0 .888-.283 1.166-1.188 1.169-1.274 0-2.556-.003-3.838-.003z" transform="translate(3079.729 -1328.271)"/>
            <path id="Path_11930" data-name="Path 11930" class="cls-1" d="M-3112.067 1312.138a1.624 1.624 0 0 1-1.742-1.606c-.025-.758 1.052-1.65 1.722-1.664.622-.013 1.832.822 1.766 1.708a1.517 1.517 0 0 1-1.746 1.562z" transform="translate(3176.738 -1308.855)"/>
            <path id="Path_11931" data-name="Path 11931" class="cls-1" d="M-3130.728 1310.6a1.463 1.463 0 0 1-1.575 1.544 1.511 1.511 0 0 1-1.6-1.566 1.752 1.752 0 0 1 1.59-1.779 1.681 1.681 0 0 1 1.585 1.801z" transform="translate(3193.058 -1308.801)"/>
        </g>
    </g>
</svg>
