<svg xmlns="http://www.w3.org/2000/svg" width="105.156" height="48.722" viewBox="0 0 105.156 48.722">
    <defs>
        <style>
            .cls-1{fill:#8a9ab1}
        </style>
    </defs>
    <g id="Group_9098" data-name="Group 9098">
        <path id="Path_11882" data-name="Path 11882" class="cls-1" d="M-744.574 382.565a24.24 24.24 0 0 1-24.31-24.278 24.305 24.305 0 0 1 23.927-24.434 24.335 24.335 0 0 1 24.924 24.382 24.253 24.253 0 0 1-24.541 24.33zm23.012-24.292a22.831 22.831 0 0 0-22.895-23 22.9 22.9 0 0 0-22.958 22.977 22.951 22.951 0 0 0 22.168 22.918 22.88 22.88 0 0 0 23.685-22.895z" transform="translate(825.19 -333.848)"/>
        <path id="Path_11883" data-name="Path 11883" class="cls-1" d="M-1271.417 558.883c0 1.906.025 3.813-.014 5.718a1.239 1.239 0 0 0 .768 1.363 1.829 1.829 0 0 0 1.943-.09 2.122 2.122 0 0 0 .782-1.055 6.282 6.282 0 0 0-.47-5.094 1.988 1.988 0 0 0-1.779-1.143c-.248-.008-.586.066-.6-.315s-.216-.861.244-1.113a4.055 4.055 0 0 1 5.148.978 6.385 6.385 0 0 1-.4 7.545 5.42 5.42 0 0 1-3.572 1.708 13.957 13.957 0 0 1-4.564-.362.752.752 0 0 1-.679-.882c.019-4.016 0-8.032.019-12.047 0-.692-.117-1.25-.845-1.5-.107-.037-.21-.1-.189-.236.025-.16.164-.2.292-.2 1.184-.007 2.368-.015 3.552 0 .368 0 .358.3.358.57v4.552q.006.798.006 1.603z" transform="translate(1275.623 -527.889)"/>
        <path id="Path_11884" data-name="Path 11884" class="cls-1" d="M-1109.432 462.372c-.023.917.053 2.047-.064 3.173a.446.446 0 0 0 .212.466 1.809 1.809 0 0 0 2.894-1.352c.073-1.792.022-3.589.019-5.384 0-.416-.284-.617-.628-.761-.1-.041-.241-.056-.228-.2.016-.175.179-.174.3-.175q2.137-.01 4.274 0c.122 0 .283-.006.309.164.022.142-.119.169-.215.214a1.14 1.14 0 0 0-.637 1.185c.015 1.832.01 3.664 0 5.5a2.865 2.865 0 0 1-2.826 2.951 5.1 5.1 0 0 1-3.294-.943c-.337-.229-.518-.243-.7.175a6.222 6.222 0 0 1-2.824 2.88c-.562.319-1.156.58-1.733.873-.4.2-.563-.038-.734-.339-.183-.323.04-.428.254-.55a4.524 4.524 0 0 0 2.25-3.793c.212-2.2.058-4.4.1-6.6a1.323 1.323 0 0 0-.971-1.336c-.114-.042-.289-.055-.242-.235.03-.114.174-.135.283-.136 1.258 0 2.516-.006 3.774 0 .383 0 .426.275.425.579l.002 3.644z" transform="translate(1133.176 -444.323)"/>
        <path id="Path_11885" data-name="Path 11885" class="cls-1" d="M-940.462 426.847h4.672l.115.126c-1.1.124-.98.887-.98 1.587 0 .926-.012 1.851.005 2.777.007.381-.123.573-.515.634a2.772 2.772 0 0 0-2.194 1.986 3.384 3.384 0 0 1-5.625 1.009 2.12 2.12 0 0 1-.454-1.505q.008-4.97 0-9.941c0-.529.053-1.078-.688-1.173a.2.2 0 0 1-.116-.155c.009-.052.092-.11.154-.129a.936.936 0 0 1 .274-.027h3.887c.157 0 .375-.043.425.161.044.183-.172.212-.288.288a.887.887 0 0 0-.4.8c0 3.2-.007 6.405.007 9.607a1.235 1.235 0 0 0 1.237 1.352c.715 0 1.158-.521 1.162-1.394.007-1.555-.009-3.11.009-4.665.007-.561-.066-1.04-.737-1.207z" transform="translate(982.839 -412.235)"/>
        <path id="Path_11886" data-name="Path 11886" class="cls-1" d="M-1006.9 596.489c0 1.166.012 2.332 0 3.5-.008.6.128 1.067.814 1.175.128.02.274.066.232.241-.033.137-.171.119-.278.12q-2.415.013-4.83.022c-.114 0-.236-.007-.264-.145s.074-.2.182-.241c.556-.2.654-.633.652-1.155-.01-1.906 0-3.812 0-5.719a2.1 2.1 0 0 0-.088-.711 1.34 1.34 0 0 0-1.4-.941 1.389 1.389 0 0 0-1.216 1.253c-.021 2.146-.011 4.293-.006 6.44a.814.814 0 0 0 .624.82c.122.04.278.074.253.241s-.192.139-.315.139h-4.664c-.127 0-.291.024-.322-.14s.121-.208.252-.227c.637-.095.776-.532.774-1.088-.006-1.369.011-2.739-.009-4.108-.006-.448.079-.684.594-.785a2.809 2.809 0 0 0 2.065-1.531c.174-.348.359-.69.517-1.044 1.1-2.455 4.391-2.309 5.836-.979a1.749 1.749 0 0 1 .612 1.368c-.026 1.163-.015 2.329-.015 3.495z" transform="translate(1046.222 -562.138)"/>
        <path id="Path_11887" data-name="Path 11887" class="cls-1" d="M-1162.892 596.97c0 1 .012 2 0 3a.866.866 0 0 0 .725 1.012c.122.025.284.044.242.23-.031.137-.17.128-.276.128h-3.11c-.33 0-.4-.223-.389-.487.021-.5-.162-.42-.459-.193a4.659 4.659 0 0 1-3.4.909 2.491 2.491 0 0 1-2.229-1.5 2.838 2.838 0 0 1 .331-2.848 3.979 3.979 0 0 1 1.783-1.274 11.175 11.175 0 0 1 2.5-.743c.2-.041.522-.235.579.158.047.322.174.729-.327.871a3.584 3.584 0 0 0-1.011.45 1.763 1.763 0 0 0-.894 1.78 1.64 1.64 0 0 0 2.669.986.612.612 0 0 0 .2-.546c0-1.63.02-3.259-.007-4.888a1.956 1.956 0 0 0-2.353-2.019c-.52.056-.822.3-.8.855a3.629 3.629 0 0 1-.027.665 1.107 1.107 0 0 1-1.15.916 1.089 1.089 0 0 1-1-1.069 2.182 2.182 0 0 1 1.085-1.83 5.535 5.535 0 0 1 5.076-.75 3.061 3.061 0 0 1 2.2 2.917c.08 1.086.016 2.183.016 3.275z" transform="translate(1183.543 -561.961)"/>
        <path id="Path_11888" data-name="Path 11888" class="cls-1" d="M-1074.205 589.065a8.176 8.176 0 0 1 1.014-.991 2.5 2.5 0 0 1 3.191.216 1.775 1.775 0 0 1 .079 2.079 1.782 1.782 0 0 1-1.825.783 1.741 1.741 0 0 1-1.442-1.612c-.009-.09-.022-.18-.045-.363a1.807 1.807 0 0 0-.9 1.43c-.04 2.369-.029 4.74-.029 7.11 0 .423.263.626.652.706.123.025.29.041.265.216s-.191.153-.316.154h-4.555c-.106 0-.246.009-.275-.128-.038-.184.124-.206.246-.228.507-.09.647-.445.648-.892 0-2.7 0-5.407.006-8.111 0-.369-.126-.565-.516-.531a1.729 1.729 0 0 1-.222 0c-.206-.009-.441 0-.447-.289s.222-.3.432-.3h1.389c.593 0 1.187.025 1.777-.008.539-.041.936.039.873.759z" transform="translate(1100.563 -559.413)"/>
        <path id="Path_11889" data-name="Path 11889" class="cls-1" d="M-909.19 600.957v-1.111c0-.194.046-.374.288-.406a.381.381 0 0 1 .454.311c.068.25.124.5.168.758a1.188 1.188 0 0 0 .913 1 2.419 2.419 0 0 0 1.839-.055 1.212 1.212 0 0 0 .334-2.03 4.876 4.876 0 0 0-1.607-.967 5.688 5.688 0 0 1-1.7-1.126 3 3 0 0 1 .93-4.994 5.917 5.917 0 0 1 3.7-.3c.483.111.747.334.706.874-.036.479 0 .962-.012 1.443 0 .191.055.453-.226.5s-.308-.212-.365-.4a1.833 1.833 0 0 0-2.454-1.27.926.926 0 0 0-.455 1.6 3.706 3.706 0 0 0 1.355.847 8.841 8.841 0 0 1 1.67.985 3.49 3.49 0 0 1-.726 5.858 5.925 5.925 0 0 1-4.39.105.556.556 0 0 1-.426-.625c.011-.333 0-.666 0-1z" transform="translate(950.148 -563.207)"/>
        <path id="Path_11890" data-name="Path 11890" class="cls-1" d="M-999.674 461.863c-.05.968.012 2.148-.076 3.332a6.117 6.117 0 0 1-3.393 5.117c-.562.317-1.154.582-1.735.866-.323.158-.507.011-.665-.276a.4.4 0 0 1 .2-.629c1.791-.974 2.26-2.652 2.308-4.5.054-2.088.007-4.179.023-6.268a.939.939 0 0 0-.582-.971c-.083-.037-.185-.072-.177-.185.01-.148.142-.166.246-.167 1.164 0 2.329-.011 3.493.006.36.005.362.309.363.574-.003.966-.005 1.927-.005 3.101z" transform="translate(1035.626 -444.366)"/>
        <path id="Path_11891" data-name="Path 11891" class="cls-1" d="M-1091.066 415.876a1.656 1.656 0 0 1 1.687 1.687 1.774 1.774 0 0 1-1.7 1.763 1.768 1.768 0 0 1-1.732-1.745 1.736 1.736 0 0 1 1.745-1.705z" transform="translate(1113.126 -406.762)"/>
        <path id="Path_11892" data-name="Path 11892" class="cls-1" d="M-1039.353 415.883a1.773 1.773 0 0 1 1.744 1.659 1.809 1.809 0 0 1-1.744 1.793 1.791 1.791 0 0 1-1.711-1.768 1.731 1.731 0 0 1 1.711-1.684z" transform="translate(1067.127 -406.768)"/>
        <path id="Path_11893" data-name="Path 11893" class="cls-1" d="M-874.682 523.214a1.556 1.556 0 0 1-1.659-1.663 1.665 1.665 0 0 1 1.653-1.722 1.711 1.711 0 0 1 1.735 1.716 1.584 1.584 0 0 1-1.729 1.669z" transform="translate(920.707 -499.163)"/>
        <path id="Path_11894" data-name="Path 11894" class="cls-1" d="M-923.055 569.068a1.006 1.006 0 0 1 .973 1.345c-.24.775-.538 1.532-.814 2.3-.036.1-.066.232-.195.242s-.166-.127-.2-.227c-.272-.8-.569-1.6-.8-2.417a1 1 0 0 1 1.036-1.243z" transform="translate(963.183 -542.93)"/>
        <path id="Path_11895" data-name="Path 11895" class="cls-1" d="M-839.719 666.412a1.2 1.2 0 0 1-1.205 1.3 1.254 1.254 0 0 1-1.285-1.236 1.305 1.305 0 0 1 1.221-1.321 1.256 1.256 0 0 1 1.269 1.257zm-1.205.394c-.223.069-.118.487-.42.365-.223-.09-.167-.346-.177-.543-.008-.147.006-.3 0-.443-.02-.418.195-.567.584-.517s.568.237.488.64a1.112 1.112 0 0 0-.025.381c.022.138.041.334.222.337s.225-.17.247-.32a.973.973 0 0 0-.428-1.107 1.1 1.1 0 0 0-1.28.185.95.95 0 0 0-.085 1.184.944.944 0 0 0 1.223.39z" transform="translate(890.368 -628.34)"/>
        <path id="Path_11896" data-name="Path 11896" class="cls-1" d="M-1235.8 459.439c-.048.083-.06.1-.066.114-.094.244.143.72-.293.7-.337-.019-.181-.456-.2-.711a6.436 6.436 0 0 1 0-.776c0-.163-.013-.357.195-.414s.3.106.4.24.215.294.324.444c.216-.111.146-.3.164-.447s.084-.246.24-.251a.229.229 0 0 1 .257.234 11.562 11.562 0 0 1-.013 1.495c-.038.339-.294.289-.476.086s-.332-.447-.532-.714z" transform="translate(1240.736 -444.5)"/>
        <path id="Path_11897" data-name="Path 11897" class="cls-1" d="M-1234.959 487.1a.687.687 0 0 1 .7.633 2.159 2.159 0 0 1-.758 1.416.309.309 0 0 1-.315.01.155.155 0 0 1-.031-.242c.193-.254.043-.372-.152-.529a.648.648 0 0 1-.2-.8.793.793 0 0 1 .756-.488z" transform="translate(1240.208 -470.069)"/>
        <path id="Path_11898" data-name="Path 11898" class="cls-1" d="M-1252.664 487.861a2.937 2.937 0 0 1-.837 1.231.259.259 0 0 1-.313 0 .133.133 0 0 1-.031-.2c.226-.3.009-.45-.173-.643a.685.685 0 0 1-.044-.917.71.71 0 0 1 .839-.271.806.806 0 0 1 .559.8z" transform="translate(1256.596 -470.003)"/>
        <path id="Path_11899" data-name="Path 11899" class="cls-1" d="M-1214.3 459.771a.915.915 0 0 1-.968-.67 1.006 1.006 0 0 1 .315-1.2 1.073 1.073 0 0 1 1.246-.042c.126.073.269.181.2.35-.079.2-.252.176-.419.1-.068-.029-.134-.062-.2-.084a.5.5 0 0 0-.586.194.476.476 0 0 0-.039.568.518.518 0 0 0 .57.248 3.83 3.83 0 0 0 .364-.122.267.267 0 0 1 .329.137c.072.144-.022.246-.13.325a1.156 1.156 0 0 1-.682.196z" transform="translate(1222.036 -443.922)"/>
        <path id="Path_11900" data-name="Path 11900" class="cls-1" d="M-1267.124 458.422c.111.25.392.237.575.365a.541.541 0 0 1 .261.662c-.135.392-.471.419-.816.411-.273-.006-.539-.068-.626-.355-.076-.25.109-.331.323-.29.168.032.313.207.518.077-.046-.274-.3-.247-.462-.332a.574.574 0 0 1-.339-.63.547.547 0 0 1 .5-.508.7.7 0 0 1 .739.262c.147.214.043.343-.2.377-.149.021-.274-.22-.473-.039z" transform="translate(1268.622 -444.032)"/>
        <path id="Path_11901" data-name="Path 11901" class="cls-1" d="M-1216.024 488.707c.116.164.478.021.438.324s-.328.23-.535.247a2.714 2.714 0 0 1-.442 0c-.411-.033-.477-.239-.243-.548.144-.19.328-.349.487-.528a.284.284 0 0 0 .077-.351c-.074-.121-.191-.071-.3-.033-.158.057-.3.039-.363-.136s.066-.279.191-.362a.676.676 0 0 1 .826 0 .613.613 0 0 1 .217.786 4.472 4.472 0 0 1-.353.601z" transform="translate(1223.461 -470.138)"/>
        <path id="Path_11902" data-name="Path 11902" class="cls-1" d="M-1190.825 459.033c.035.133.129.141.22.157.189.033.464-.011.427.294-.03.245-.275.2-.451.206-.768.044-.774.036-.774-.722v-.553c0-.755.159-.887.916-.754.148.026.313.044.307.242-.005.161-.146.189-.278.212s-.265-.021-.349.113a.21.21 0 0 0-.012.062c.106.229.523.018.544.35.023.384-.451.16-.55.393z" transform="translate(1200.761 -443.864)"/>
        <path id="Path_11903" data-name="Path 11903" class="cls-1" d="M-1267.5 488.466c0 .257.009.514 0 .771a.236.236 0 0 1-.244.247.248.248 0 0 1-.259-.237c-.025-.2-.025-.4-.037-.6-.01-.18.028-.377-.129-.517-.136-.121-.343-.238-.192-.442a.628.628 0 0 1 .646-.215c.234.047.224.262.232.445s0 .367 0 .551z" transform="translate(1269.221 -470.386)"/>
        <path id="Path_11904" data-name="Path 11904" class="cls-1" d="M-727.254 397.465a22.247 22.247 0 0 1-22.354-22.133 22.27 22.27 0 0 1 22.293-22.349 22.206 22.206 0 0 1 22.27 22.313 22.181 22.181 0 0 1-22.209 22.169zm-.559-9.037a25.382 25.382 0 0 0 3.7-.172 16.649 16.649 0 0 0 3.093-.633 6.047 6.047 0 0 0 2.734-1.28.816.816 0 0 0-.046-1.406 4.881 4.881 0 0 0-1.491-.84.628.628 0 0 0-.852.257 4.778 4.778 0 0 1-2.6 1.879 16.768 16.768 0 0 1-8.277.343 5.777 5.777 0 0 1-3.557-1.894c-.664-.787-.743-.811-1.679-.333a3.749 3.749 0 0 0-.874.584.909.909 0 0 0 .116 1.6 6.544 6.544 0 0 0 1.84.886 24.089 24.089 0 0 0 7.893 1.009zm-.432-2.362c.577 0 .985.019 1.391 0a12.973 12.973 0 0 0 2.627-.38 4.651 4.651 0 0 0 3.628-3.507.867.867 0 0 1 .8-.687 6.844 6.844 0 0 0 5.367-4.321 3.376 3.376 0 0 0-.212-3.2 3.332 3.332 0 0 0-3.5-1.39c-.49.059-.65-.061-.58-.549a1.621 1.621 0 0 0-.668-1.547 6.981 6.981 0 0 0-3.171-1.247 26.635 26.635 0 0 0-9.866-.2 9.977 9.977 0 0 0-3.937 1.254 1.824 1.824 0 0 0-.944 1.7 36.322 36.322 0 0 0 .442 3.964 33.444 33.444 0 0 0 1.677 6.884 4.243 4.243 0 0 0 2.5 2.522 10.6 10.6 0 0 0 4.446.704zm4.479-26.354c-.451.468-.736.974-1.169 1.353a7.415 7.415 0 0 1-2.521 1.364 2.765 2.765 0 0 0-1.9 1.72c-.235.719-.394 1.464-.573 2.2-.041.168-.142.416.058.5.22.1.3-.168.379-.317a4.87 4.87 0 0 1 2.651-2.322c.413-.16.8-.384 1.2-.577a4.111 4.111 0 0 0 1.875-3.921zm-12.162 23.421a.759.759 0 0 0-.778.047 9.731 9.731 0 0 0-1.125.6c-1.835 1.155-1.793 2.755.085 3.871a10.786 10.786 0 0 0 2.841 1.088 28.1 28.1 0 0 0 7.812.713 25.131 25.131 0 0 0 5.556-.608 10.052 10.052 0 0 0 3.777-1.54 1.878 1.878 0 0 0 .209-3.044 5.773 5.773 0 0 0-2.106-1.2c-.105-.038-.25-.117-.338.116a10.074 10.074 0 0 1 1.944 1.031c1.274.966 1.24 2.066-.074 3a9.144 9.144 0 0 1-3.377 1.357 31.089 31.089 0 0 1-11.85.242 10.768 10.768 0 0 1-4.521-1.582c-1.357-.93-1.346-2.185.019-3.111a9.9 9.9 0 0 1 1.926-.98zm12.895-19.3c-.556.744-1.425.805-2.2 1.084a4.366 4.366 0 0 0-.848.409 2.608 2.608 0 0 0-1.052 1.976 7.844 7.844 0 0 1 2.88-1.612 2 2 0 0 0 1.219-1.856z" transform="translate(808.056 -350.857)"/>
        <path id="Path_11905" data-name="Path 11905" class="cls-1" d="M-627.223 513.609a14.833 14.833 0 0 1-3.773-.3 5.072 5.072 0 0 1-3.744-3.914 47.047 47.047 0 0 1-1.514-7.946 21.481 21.481 0 0 1-.106-1.6 1.4 1.4 0 0 1 .532-1.163 4.106 4.106 0 0 1 1.5-.813 24.966 24.966 0 0 1 9.057-.872 22.821 22.821 0 0 1 4.529.768 6.28 6.28 0 0 1 1.615.717 1.593 1.593 0 0 1 .778 1.8c-.127.7-.111.695.564.57a3.281 3.281 0 0 1 3.158.712 2.768 2.768 0 0 1 .8 2.644 6.28 6.28 0 0 1-4.4 4.715 3 3 0 0 1-.912.228 1.043 1.043 0 0 0-1.079.888c-.6 2.19-2.283 3.051-4.325 3.46a16.87 16.87 0 0 1-2.68.106zm-.113-.715a16.64 16.64 0 0 0 2.435-.1c2.062-.346 3.583-1.285 4.148-3.454.355-1.361.667-2.73.975-4.1a34.927 34.927 0 0 0 .547-3.729c.026-.227.118-.579-.379-.353a16.076 16.076 0 0 1-5.943 1.21 26.65 26.65 0 0 1-4.817-.093 14.31 14.31 0 0 1-4.772-1.149c-.315-.16-.413-.063-.375.248.059.477.143.951.2 1.428a44.378 44.378 0 0 0 1.4 6.615 4.254 4.254 0 0 0 3.335 3.2 12.044 12.044 0 0 0 3.245.277zm.288-14.23a17.284 17.284 0 0 1 2.994.159 8.255 8.255 0 0 1 4.17 1.352c.253.191.411.03.573-.125a.439.439 0 0 0 .065-.644 1.772 1.772 0 0 0-.8-.581 15.63 15.63 0 0 0-2.175-.66 25.732 25.732 0 0 0-7.554-.412 17.43 17.43 0 0 0-4.551.937 2.826 2.826 0 0 0-1.129.682c-.229.244-.141.467.078.672.183.171.336.336.6.088a3.719 3.719 0 0 1 1.322-.685 18.374 18.374 0 0 1 6.406-.783zm12.495 5.03a1.883 1.883 0 0 0-.408-1.351 2.616 2.616 0 0 0-3.287-.492.492.492 0 0 0-.266.4 57.946 57.946 0 0 1-1.076 5.721c-.088.4.035.487.43.412a5.807 5.807 0 0 0 2.72-1.31 4.638 4.638 0 0 0 1.886-3.38z" transform="translate(707.392 -478.795)"/>
        <path id="Path_11906" data-name="Path 11906" class="cls-1" d="M-477.991 542.165a3.74 3.74 0 0 1-.741 2.359 5.756 5.756 0 0 1-3.2 2.25c-.422.121-.556-.016-.461-.43a35.974 35.974 0 0 0 .919-5.069.481.481 0 0 1 .244-.415 2.513 2.513 0 0 1 2.3-.084 1.618 1.618 0 0 1 .939 1.389z" transform="translate(570.559 -517.571)"/>
    </g>
</svg>
