<svg xmlns="http://www.w3.org/2000/svg" width="105.616" height="46.462" viewBox="0 0 105.616 46.462">
    <defs>
        <style>
            .cls-1{fill:#8a9ab1}.cls-2{fill:#fff}
        </style>
    </defs>
    <g id="Group_9103" data-name="Group 9103">
        <path id="Path_11932" data-name="Path 11932" class="cls-1" d="M-3828.668 1318.511c-.089 3.656-.062 3.452-3.746 3.449q-22.379-.017-44.757.028c-1.565.005-2.2-.54-2.2-2.049q.024-11.4.026-22.808c0-.448-.052-.927.352-1.271.7-.573 1.655-.243 2.394-.679v-.013a2.841 2.841 0 0 1 .594-.342 6.726 6.726 0 0 1 1.874-.124q21.08-.007 42.161.02c.875 0 1.993-.436 2.531.788a2.039 2.039 0 0 1-1.33.18q-21.708.009-43.415 0a3.71 3.71 0 0 1-.855.022c.25-.018.741-.008 1.233-.008h42.729c.917 0 1.859-.11 2.473.807a4.043 4.043 0 0 1 .289 2.013q.014 9 0 18a3.106 3.106 0 0 1-.353 1.987z" transform="translate(3879.373 -1275.526)"/>
        <path id="Path_11933" data-name="Path 11933" class="cls-2" d="M-3690.145 1239.636a8.911 8.911 0 0 1 5.9 4.4c.465.9 1.184.71 1.895.685a8.451 8.451 0 0 1 6.7 2.666 9.137 9.137 0 0 1 1.336 2.464c.942 3.686-.258 6.578-3.575 8.712-.72.463-1.543.722-2.228 1.236a2.148 2.148 0 0 0-.521.882c-.183 1.026 0 2.066-.14 3.088-.172 1.29-.878 1.918-1.968 1.431-4.083-1.825-8.479-1.677-12.767-2.211a1.233 1.233 0 0 1-.33-.092c-.425-.226-1.171-.185-1.136-.825.03-.564.659-.716 1.165-.85a3.128 3.128 0 0 1 .51-.067c.3-.021.6-.025.9-.026 2.174.006 4.348-.008 6.519 0a17.463 17.463 0 0 1 3.873.339c.2-1.168-.57-1.392-1.282-1.661a4.632 4.632 0 0 1-1.051-.661 7.069 7.069 0 0 0-2.1-.943c-.533-.217-1.233-.206-1.44-.936.653-1.365 1.921-.793 2.959-.945a20.917 20.917 0 0 1 3.724.338 5.616 5.616 0 0 0 6.252-4.306c.3-1.4-.514-2.384-1.184-3.431-1.816-2.447-3.536-2.522-6.187-.264-1.129-.1-1.415-1.023-1.727-1.861a8.226 8.226 0 0 0-1.555-2.8 3.854 3.854 0 0 0-2.456-1.386 11.389 11.389 0 0 0-4.041.035c-2.74 1.011-3.277 1.8-3.27 4.82a1.241 1.241 0 0 1-.249.784c-.623.395-1.209.047-1.8-.1a7.814 7.814 0 0 0-1.99-.441 3.83 3.83 0 0 0-3.7 2c-.766 1.627.135 2.937 1.261 4.083.46.531.963 1.022 1.466 1.514a10.585 10.585 0 0 1 .941 1.4 6.571 6.571 0 0 1 .634 1.925c0 .569-.136 1.04-.79 1.16-1.018 0-1.243-.928-1.768-1.505a13.538 13.538 0 0 0-1.285-1.255 4.042 4.042 0 0 1-.362-.292c-1.089-.972-2.345-1.785-2.929-3.225-.172-.425-.418-.808-.189-1.278-1.067-1.9-.372-3.515.813-5.052.3-.821 1.039-1.066 1.753-1.345a3.112 3.112 0 0 0 1.7-.681c.111-.133.255-.323.4-.3 2.139.351 3.354-.938 4.441-2.466 1.093-.45 1.43-1.867 2.692-2.1a6.788 6.788 0 0 1 6.186-.657z" transform="translate(3767.521 -1239.194)"/>
        <path id="Path_11934" data-name="Path 11934" class="cls-1" d="m-3823.1 1307.242-.072-20.412c0-.513-.047-1.025-.071-1.537-.294-.311-.489-.7-.771-1.017-.647-.558-1.424-.279-2.131-.28q-21.212-.032-42.424-.02c-.685 0-1.37-.049-2.054-.076a18.726 18.726 0 0 1-.15-5.091c.041-1.239 1.082-1.253 2.042-1.251 5.2.009 10.4-.013 15.6.011 3.2.014 6.395-.106 9.59.071.167 1-.587 1.1-1.247 1.233a10.2 10.2 0 0 1-2.055.09c-6.811 0-13.621-.01-20.431.012-.959 0-1.975-.11-2.136 1.342-.216 1.95.083 2.355 2.238 2.358q20 .02 40 .007c4.813 0 5.179.37 5.18 5.166 0 5.265-.011 10.531.006 15.8.007 2.24.154 2.4 2.29 2.4q23.95.018 47.9 0c2.153 0 2.312-.173 2.315-2.382q.018-11.246 0-22.491c0-2.126-.123-2.191-2.239-2.218-2.685-.033-5.373.148-8.058-.074a.637.637 0 0 1-.237-.856c.51-.648 1.237-.437 1.895-.454 3.053-.082 6.111.139 9.163-.121 1.039.306.724 1.177.725 1.86.016 8.587-.034 17.173.046 25.759.016 1.714-.6 2.176-2.192 2.172-9.5-.029-19 .013-28.506.019q-12.105 0-24.216-.02z" transform="translate(3873.801 -1264.256)"/>
        <path id="Path_11935" data-name="Path 11935" class="cls-1" d="M-3843.84 1277.525c-8.33 0-16.66.016-24.99-.035-1.657-.01-2.267.669-2.175 2.259.076 1.308.032 2.624.042 3.935h-.406c0-1.6.074-3.208-.017-4.8-.079-1.385.5-1.775 1.808-1.761 5.035.051 10.07.012 15.1.019q19.566.024 39.132.058a.394.394 0 0 1-.2.56 5.059 5.059 0 0 1-2.357.309q-11.666.014-23.331 0c-.888-.013-1.844.161-2.606-.544z" transform="translate(3874.144 -1264.04)"/>
        <path id="Path_11936" data-name="Path 11936" class="cls-1" d="M-3860.895 1258.759a3.372 3.372 0 0 1-3.622-3.613 3.648 3.648 0 0 1 3.6-3.572 3.814 3.814 0 0 1 3.717 3.7 3.643 3.643 0 0 1-3.695 3.485z" transform="translate(3869.639 -1247.305)"/>
        <path id="Path_11937" data-name="Path 11937" class="cls-1" d="M-3620.954 1273.255v.676c.51.693.135 1.317-.194 1.9a8.677 8.677 0 0 1-4.12 4.186 2.707 2.707 0 0 0-1.837 3.079c.065.773.337 1.758-.694 2.258a.707.707 0 0 1-.468-.915c.21-1.555-.233-3.165.4-4.683a18.678 18.678 0 0 0 4.235-2.785c1.885-1.965 2.031-4.389 1.96-6.892.81.6.688 1.5.741 2.343a.809.809 0 0 1-.023.833z" transform="translate(3714.876 -1259.432)"/>
        <path id="Path_11940" data-name="Path 11940" class="cls-1" d="M-3708.857 1277.491c0-.123 0-.246.006-.369l.592-.114c.548 2.013 2.342 3.062 3.541 4.572a1 1 0 0 1-1.1.219c-1.259-.399-2.933-2.773-3.039-4.308z" transform="translate(3767.655 -1263.969)"/>
        <path id="Path_11941" data-name="Path 11941" class="cls-1" d="M-3607 1277.708q.014-.414.025-.828l10.9.195c-2.681.624-5.4.114-8.1.284-.944.061-1.936-.229-2.825.349z" transform="translate(3700.918 -1263.885)"/>
        <path id="Path_11943" data-name="Path 11943" class="cls-1" d="M-3875.881 1296.059a3.219 3.219 0 0 1-2.394.679c.504-1.265 1.58-.511 2.394-.679z" transform="translate(3878.654 -1276.403)"/>
        <path id="Path_11944" data-name="Path 11944" class="cls-2" d="M-3865.434 1318.255c-.844-.512-.814-1.322-.734-2.149a2.3 2.3 0 0 1 2.2-1.005c1.944.058 3.891 0 5.838.029a1.2 1.2 0 0 1 .805.311 2.783 2.783 0 0 1 1.118 1.016c.856 1.739.021 3.7.719 5.46.008.021.073.038.1.027a1.057 1.057 0 0 0 .146-.092 3.6 3.6 0 0 0 .546.118c6.065.007 12.125.08 18.185-.037a1.154 1.154 0 0 0 .5-.332l.011-.013a1.048 1.048 0 0 0 .331-.457c.121-1.191.05-2.385.052-3.577 0-.892.061-1.744 1.029-2.133a1.782 1.782 0 0 1 2.3.906 58.279 58.279 0 0 1 .06 6.692 2.53 2.53 0 0 1-2.431 2.213 12.093 12.093 0 0 1-5.085.092 10.431 10.431 0 0 0-2.552.1c-7.592-.016-15.184.052-22.775-.035a4.535 4.535 0 0 1-1.434-.532 1.7 1.7 0 0 1-.651-1.967c.149-.789.783-.883 1.446-.89 1.939-.019 3.878 0 5.813-.012 1.081-.489 1.24-1.378.543-3.073l-.114-.073c-1.125-.566-2.329-.168-3.491-.289-.824-.091-1.698.218-2.475-.298z" transform="translate(3871.41 -1288.924)"/>
        <path id="Path_11945" data-name="Path 11945" class="cls-2" d="M-3762.182 1330.929c-1.014-1.033-.929-2.423.245-2.789.979-.3 1.152-.942 1.148-1.8-.011-2.329-.017-4.657.017-6.986.007-.512-.292-1.338.48-1.426s1.809-.712 2.35.509a2.339 2.339 0 0 1 .462 1.27c.03 3.082.1 6.167-.025 9.246-.071 1.8-.745 2.285-2.681 2.286a3.329 3.329 0 0 1-1.996-.31z" transform="translate(3803.052 -1290.621)"/>
        <path id="Path_11946" data-name="Path 11946" class="cls-1" d="M-3836.789 1343.182c-2.392 1.236-4.068.424-4.01-2.055.031-1.307-.383-1.633-1.651-1.625-7.725.053-15.453-.052-23.177.071-2.146.034-3.31-1.217-2.351-3.51.391 1.033-.158 2.638 1.7 2.78a9.481 9.481 0 0 0 2.734.143c6.41.011 12.821.107 19.228-.034 3.526-.078 7.077.382 10.583-.347.181-.038.324.089.478.161l.007 1.453a1.636 1.636 0 0 1-.972.1c-1.872-.022-2.1.4-1.15 2.114.765.773 1.966.054 2.736.8-1.418.862-2.743.394-4.053-.286-.85-.435-.226-1.6-1.02-2.055-.688-.229-1.424-.68-2.078-.143-.44.361-.182.945.078 1.406.67 1.2 2.076.317 2.918 1.027z" transform="translate(3872.129 -1302.661)"/>
        <path id="Path_11947" data-name="Path 11947" class="cls-1" d="M-3822.918 1297.253c.542.123.887.4.77 1.017a5 5 0 0 0-2.875-.722q-21.187.049-42.375.026h-1.8l.008-.321z" transform="translate(3872.709 -1277.233)"/>
        <path id="Path_11948" data-name="Path 11948" class="cls-1" d="M-3760.847 1332.349c4.1-.11 4.283.708 4.237-4.49-.023-2.668 0-5.336 0-8 .491.043.908.166.9.787-.058 3.594.22 7.192-.162 10.781-.1.9-.623 1.622-1.5 1.567-1.166-.076-2.598.998-3.475-.645z" transform="translate(3801.717 -1292.041)"/>
        <path id="Path_11949" data-name="Path 11949" class="cls-1" d="M-3830.555 1339.961a7.283 7.283 0 0 1-1.646.387q-15.994.01-31.99-.032c.034-.748.57-.389.928-.422 7.6.012 15.208.146 22.806-.033 2.5-.059 5 .427 7.5-.1 1.175-.248 2.174-.483 2.359-1.872.913.094.573.644.412 1.129z" transform="translate(3869.426 -1303.856)"/>
        <path id="Path_11950" data-name="Path 11950" class="cls-1" d="m-3814.556 1324.93.011.368a1.669 1.669 0 0 1-1.151.181q-8.53.008-17.059 0a1.888 1.888 0 0 1-1-.139l-.33-.138c-.638-1.648-.326-3.341-.244-5.024 1.126.8.538 1.984.542 2.96.006 1.347.3 1.889 1.8 1.863 5.808-.101 11.62-.059 17.431-.071z" transform="translate(3849.958 -1292.254)"/>
        <path id="Path_11951" data-name="Path 11951" class="cls-2" d="M-3757.261 1306.272c1.133.146 2.5-.526 3.265.917-.366 2.185-.682 2.4-2.734 1.83l-.582-.074a2.2 2.2 0 0 1 .051-2.673z" transform="translate(3799.682 -1283.121)"/>
        <path id="Path_11952" data-name="Path 11952" class="cls-1" d="M-3766.424 1325.8c-.023-.418.033-.865-.412-1.129l-.032-6.794a.447.447 0 0 1 .7.015c-.025 2.637.468 5.291-.256 7.908z" transform="translate(3805.662 -1290.637)"/>
        <path id="Path_11953" data-name="Path 11953" class="cls-1" d="m-3863.957 1350.15 1.143.563c.026.363-.5.8.15 1.066.152-.826 1.272-.139 1.432-.94l.532-.018a3.964 3.964 0 0 1 .62 1.725 9.167 9.167 0 0 1-5.157.013c.279-.441.963-.721.508-1.444-.644-1.015.447-.695.772-.965z" transform="translate(3870.111 -1311.89)"/>
        <path id="Path_11954" data-name="Path 11954" class="cls-1" d="M-3865.321 1337.7c-.309.14-.738.019-.927.422-1.327-.677-.947-1.959-1.083-3.058l.4-.393c2.428-.246 4.862-.068 7.293-.1.256.07.323.223.2.46-1.985.018-3.969.016-5.953.069-.55.015-1.333-.339-1.508.619a1.334 1.334 0 0 0 1.125 1.755 2.058 2.058 0 0 1 .453.226z" transform="translate(3871.483 -1301.663)"/>
        <path id="Path_11955" data-name="Path 11955" class="cls-1" d="m-3772.222 1316.045-.7-.015c-.6-.173-.99-1.042-1.781-.54a2.216 2.216 0 0 0-.878 2.039c-.064 1.3.428 2.672-.371 3.9a31.5 31.5 0 0 1-.025-6.068c1.414-.678 2.721-.749 3.755.684z" transform="translate(3811.72 -1288.792)"/>
        <path id="Path_11956" data-name="Path 11956" class="cls-1" d="M-3862.04 1324.1c1.7-.029 3.4-.075 5.093-.076.4 0 1-.106.876.658-1.59 0-3.179.012-4.768-.012-.461-.009-1.086.214-1.201-.57z" transform="translate(3868.017 -1294.768)"/>
        <path id="Path_11957" data-name="Path 11957" class="cls-1" d="M-3826.14 1351.635c-.671.293-1.231 1.131-2.1.465a1.236 1.236 0 0 1-.315-1.535.96.96 0 0 1 1.478-.555c.462.265-.836.128-.193.528a4.668 4.668 0 0 0 1.088.354.561.561 0 0 1 .042.743z" transform="translate(3846.164 -1311.688)"/>
        <path id="Path_11958" data-name="Path 11958" class="cls-1" d="M-3754.812 1310.823c1.647.49 2.062-.864 2.734-1.83.634.794.743 1.958-.015 2.3-.701.324-2.048.925-2.719-.47z" transform="translate(3797.764 -1284.925)"/>
        <path id="Path_11959" data-name="Path 11959" class="cls-1" d="M-3770.736 1352.093c-.993-.274-2.256.761-3.022-.621a.316.316 0 0 1 0-.42c1.015-.091 1.962-.3 2.384-1.4a.523.523 0 0 1 .657.118 6.379 6.379 0 0 1-.019 2.323z" transform="translate(3810.228 -1311.52)"/>
        <path id="Path_11960" data-name="Path 11960" class="cls-1" d="M-3834.851 1319.43c.516 1.655.2 3.349.245 5.025-.619.187-.6-.405-.6-.643-.062-1.591-.051-3.184-.063-4.776z" transform="translate(3850.48 -1291.505)"/>
        <path id="Path_11961" data-name="Path 11961" class="cls-1" d="M-3783.3 1352.028c-1.2-.059-2.659.8-3.374-.961 1.1-.183 2.361-.079 2.8-1.5 1.178.454.1 1.591.674 2.229a5.599 5.599 0 0 1-.1.232z" transform="translate(3818.637 -1311.507)"/>
        <path id="Path_11962" data-name="Path 11962" class="cls-1" d="M-3855.784 1315.13c-1.412 0-2.823-.023-4.234-.009s-2.865-.213-4.151.636l.018-.968c2.59-.429 5.2-.1 7.793-.17a.551.551 0 0 1 .574.511z" transform="translate(3869.412 -1288.575)"/>
        <path id="Path_11963" data-name="Path 11963" class="cls-1" d="M-3855.752 1314.709c-1.324-.75-2.758-.263-4.137-.344-1.405-.082-2.82-.005-4.23 0 1.015-.768 2.18-.3 3.271-.362 1.416-.086 2.842-.041 4.263 0 .5.015 1.224-.25 1.3.664z" transform="translate(3869.379 -1288.154)"/>
        <path id="Path_11964" data-name="Path 11964" class="cls-1" d="M-3833.955 1351.963c-.571-.689-1.269-1.453.164-1.9.684-.214.981.375 1.012 1.036.037.816-.273 1.383-1.154 1.3-.967-.091.041-.287-.022-.436z" transform="translate(3850.063 -1311.802)"/>
        <path id="Path_11965" data-name="Path 11965" class="cls-1" d="M-3864.644 1350.037c.195.46-1.106.006-.45.7 1.284 1.356.212 1.513-.83 1.711-.453-.26.083-.586-.061-.874-.797-1.596.112-1.708 1.341-1.537z" transform="translate(3870.798 -1311.777)"/>
        <path id="Path_11966" data-name="Path 11966" class="cls-1" d="m-3772.054 1348.11-.677-.013c-1.01.063-2.314-.36-2.3 1.392a1.427 1.427 0 0 1-.063.329c-1.21-.434-.68-1.455-.6-2.178.1-.887.986-.471 1.545-.551a2.159 2.159 0 0 1 1.461.334z" transform="translate(3811.568 -1309.865)"/>
        <path id="Path_11967" data-name="Path 11967" class="cls-1" d="m-3821.383 1351.756-.042-.743c.071-.659.411-1.226 1.074-.885.535.275.6 1.156.433 1.642-.382 1.13-.956-.3-1.465-.014z" transform="translate(3841.407 -1311.809)"/>
        <path id="Path_11968" data-name="Path 11968" class="cls-1" d="m-3858.682 1334.319-7.485-.066c1.731-.687 3.532-.133 5.294-.294.725-.066 1.458-.043 2.187-.06a.275.275 0 0 1 .09.278c-.029.095-.057.142-.086.142z" transform="translate(3870.721 -1301.243)"/>
        <path id="Path_11969" data-name="Path 11969" class="cls-1" d="M-3847.594 1352.129c1.144-.026 1.139-.027.9 1.115-.06.28.842.062.336.609-1.68-.003-1.891-.298-1.236-1.724z" transform="translate(3858.778 -1313.182)"/>
        <path id="Path_11970" data-name="Path 11970" class="cls-1" d="M-3850.11 1352.094c-.39 1.147.06 1.693 1.232 1.724a1.728 1.728 0 0 1-2.053 0c-1.185-1.136-1.16-1.29.288-1.75z" transform="translate(3861.294 -1313.148)"/>
        <path id="Path_11971" data-name="Path 11971" class="cls-1" d="M-3844.468 1329.242v-.419l.024-2.672a2.228 2.228 0 0 1-.007 3.389 1.01 1.01 0 0 0-.017-.298z" transform="translate(3856.507 -1296.166)"/>
        <path id="Path_11972" data-name="Path 11972" class="cls-1" d="M-3838.873 1351.527c.24-.4-.639-1.216.165-1.2 1.068.02.312 1.2.674 1.78.3.478-.16.559-.5.532-1.033-.083-.094-.774-.339-1.112z" transform="translate(3852.957 -1312.005)"/>
        <path id="Path_11973" data-name="Path 11973" class="cls-1" d="m-3776.352 1316.259.025 6.069-.351.02c.23-2.023-.322-4.088.326-6.089z" transform="translate(3812.092 -1289.685)"/>
        <path id="Path_11974" data-name="Path 11974" class="cls-1" d="m-3757.925 1306.334-.051 2.672a1.513 1.513 0 0 1 .051-2.672z" transform="translate(3800.346 -1283.183)"/>
        <path id="Path_11975" data-name="Path 11975" class="cls-1" d="M-3856.571 1352.089a1.786 1.786 0 0 1 0 1.417c-.625-.065-.332-.668-.657-.926-.49.137-.079.667-.343.9a.206.206 0 0 1-.137.061c-.049-.008-.091-.06-.135-.093a.985.985 0 0 1 .02-1.388z" transform="translate(3865.451 -1313.14)"/>
        <path id="Path_11976" data-name="Path 11976" class="cls-1" d="m-3859.285 1351.879-.02 1.388c-.326.067-.741.51-.937-.088s-.2-1.211.629-1.394c.113.037.213.068.328.094z" transform="translate(3866.91 -1312.961)"/>
        <path id="Path_11977" data-name="Path 11977" class="cls-1" d="M-3851.053 1352.07c-1.385.371-.42 1.13-.288 1.75l-.164-.037-.167.021a1.274 1.274 0 0 1-.62-1.726z" transform="translate(3861.703 -1313.148)"/>
        <path id="Path_11978" data-name="Path 11978" class="cls-1" d="M-3813.476 1258.625a12.343 12.343 0 0 0 2.51 3.466 1.863 1.863 0 0 0 1.629.623c.44.426.543 1.273 1.428 1.143.533.463.578 1.311 1.289 1.634.777.583.892 1.611 1.532 2.267a3.613 3.613 0 0 0-.387-2.971c-.157-.7-.547-1.32-.712-2.016-.011-.792-.621-1.093-1.182-1.432a2.071 2.071 0 0 1-1.268-1.3c-.184-.223-.242-.525-.405-.742-.834-1.111-1.406-2.233-.454-3.564a4.317 4.317 0 0 1 4.14-1.882 6.7 6.7 0 0 1 2.625.668c.427.232.6-.09.63-.5-.46-2.311.3-4.094 2.462-5.042a7.092 7.092 0 0 1 7.561.71 4.819 4.819 0 0 1 1.6 2.648 3.515 3.515 0 0 0 1.421 2.153c.2.073.41.214.617.024 1.988-1.823 2.721-1.906 5.009-.545a4.115 4.115 0 0 1 .875.5c1.772 2.634 1.828 3.785.294 6.038a5.708 5.708 0 0 1-6.05 2.5c-1.006-.182-2.035-.237-3.054-.35a6.623 6.623 0 0 0-3.042-.223 22.372 22.372 0 0 1-3.317-.038c.673.151.943.3.724.759-.37.3-.831-.044-1.164.076 2.488.342 5.054.426 7.387 1.644l.779.417c.126.52 1.031.727.64 1.433-.343.618-1.005.409-1.552.437-.626.032-1.255.008-1.882.009-1.8 0-3.61-.012-5.415.006-.606.006-1.253-.142-1.782.319a2.312 2.312 0 0 0-1.449.438c.225.426.869.074 1.059.55-.032.047-.064.134-.1.134-.181 0-.195.118-.03.127 1.864.1 3.715.351 5.575.477a19.664 19.664 0 0 1 7.186 1.817 3.092 3.092 0 0 0 2.45-.136 1.933 1.933 0 0 0 .314-1.921 3.054 3.054 0 0 1 2.192-3.756c2.1-.8 3.175-2.611 4.144-4.479a5.047 5.047 0 0 0 .29-1.139c1.657-.7 3.392-.23 5.088-.325 1.37-.077 2.773.145 4.114-.066 1.476-.232 1.778.3 1.771 1.625-.041 7.386-.018 14.772-.019 22.158 0 4.446 0 4.448-4.476 4.448-15.688 0-31.376-.025-47.064.036-1.646.007-2.126-.423-2.1-2.086.1-6.125.043-12.252.043-18.379 0-2.471-.466-2.932-3.027-2.937q-6.355-.012-12.71 0c-9.905 0-19.811-.024-29.716.022-1.524.007-2.286-.145-2.049-2.044.345-2.768.177-2.789 2.918-2.789q10.822 0 21.643-.005c.718 0 1.531.2 1.964-.669z" transform="translate(3872.274 -1245.102)"/>
        <path id="Path_11979" data-name="Path 11979" class="cls-1" d="M-3691.694 1263.87c.151.064.411.1.436.2.15.576-.327.47-.621.483-1.1.049-1.94-.78-3.066-.831a4.543 4.543 0 0 0-3.458.932c-1.123.979-1.715 2.045-.5 3.354a1.854 1.854 0 0 1 .336 1.448c-1.468-.949-2.32-2.933-1.834-4.273a4.376 4.376 0 0 1 4.541-2.55 33.846 33.846 0 0 1 3.439.877c.416-.232.526.155.727.36z" transform="translate(3762.206 -1254.521)"/>
        <path id="Path_11980" data-name="Path 11980" class="cls-1" d="M-3657.954 1304.917c-.37 1.311-1.553.879-2.108.614-4.331-2.07-9.011-2.143-13.629-2.6a2.809 2.809 0 0 1-.49-.144c.334-.385.766-.223 1.144-.291 4.395.265 8.819.318 12.936 2.242 1.179.551 1.482-.282 1.581-1.262.112-1.112-.32-2.265.248-3.343a10.93 10.93 0 0 1 .014 4.111z" transform="translate(3744.936 -1279.123)"/>
        <path id="Path_11981" data-name="Path 11981" class="cls-1" d="m-3676.357 1254.18-.729-.363c-.249-3.806.464-5.034 3.393-5.85a17.1 17.1 0 0 1 4.662-.019 2.913 2.913 0 0 1 2.356 1.465 11.053 11.053 0 0 0-4.406-1.088c-3.599.101-5.304 1.994-5.276 5.855z" transform="translate(3746.869 -1244.832)"/>
        <path id="Path_11982" data-name="Path 11982" class="cls-1" d="M-3631.532 1262.5a3.034 3.034 0 0 1-1.29-.316c-2.231-1.3-3.517-.91-4.608 1.367a1.062 1.062 0 0 1-.6-1.034c1.321-2.731 4.322-2.739 6.498-.017z" transform="translate(3721.253 -1253.129)"/>
        <path id="Path_11983" data-name="Path 11983" class="cls-1" d="M-3665.334 1288.99c-.5-.472-1.238-.069-2.236-.8 2.953-.126 5.432-.807 7.876.463-1.037.328-2.319-.506-3.178.669-.928.697-1.694.172-2.462-.332z" transform="translate(3740.604 -1271.101)"/>
        <path id="Path_11984" data-name="Path 11984" class="cls-1" d="M-3649.2 1299.289h3.152c.263-.724-.56-1-.307-1.558a2.053 2.053 0 0 1 1.75 1.121 1.3 1.3 0 0 1 .163 1.29c-.3.613-.8.143-1.161.028a13.358 13.358 0 0 0-2.845-.234c-.235-.186-.553-.122-.8-.267a.3.3 0 0 1 .048-.38z" transform="translate(3728.631 -1277.546)"/>
        <path id="Path_11985" data-name="Path 11985" class="cls-1" d="m-3664.326 1291.074 2.462.33c1.261.5 2.789.354 3.766 1.548l-7.933-1.545.025-.233z" transform="translate(3739.596 -1273.185)"/>
        <path id="Path_11986" data-name="Path 11986" class="cls-1" d="M-3687.558 1298.716a3.816 3.816 0 0 1-1.414-2.6c.723-.081.708-.629.731-1.154.828.2.561 1.088.965 1.555.013.749.294 1.529-.282 2.199z" transform="translate(3754.626 -1275.734)"/>
        <path id="Path_11987" data-name="Path 11987" class="cls-1" d="M-3662.593 1302.179a2.668 2.668 0 0 1 .012.3c-1.535.423-3.1.072-4.647.2-.655.053-1.341-.2-1.963.192l-.548-.04c.09-.917.842-.641 1.324-.651 1.94-.048 3.882-.01 5.822-.001z" transform="translate(3742.025 -1280.436)"/>
        <path id="Path_11988" data-name="Path 11988" class="cls-1" d="M-3668.15 1303.466c2.166-.767 4.412-.168 6.61-.389l.739.351z" transform="translate(3740.984 -1281.038)"/>
        <path id="Path_11989" data-name="Path 11989" class="cls-1" d="m-3628.042 1302.946-.015-4.11c-.02-.3 0-.575.347-.686-.204 1.591.323 3.235-.332 4.796z" transform="translate(3714.72 -1277.82)"/>
        <path id="Path_11990" data-name="Path 11990" class="cls-1" d="M-3691.148 1286.195c1.09-.178 1.651.207 1.469 1.381a.442.442 0 0 1-.632 0c-.279-.459-.782-.785-.837-1.381z" transform="translate(3756.052 -1269.961)"/>
        <path id="Path_11991" data-name="Path 11991" class="cls-1" d="M-3688.72 1290.281h.632l.753 1.993c.125.4.255.8-.078 1.164l-.661-1.54z" transform="translate(3754.461 -1272.664)"/>
        <path id="Path_11992" data-name="Path 11992" class="cls-1" d="m-3662.5 1247.406-4.661.019a6.315 6.315 0 0 1 4.661-.019z" transform="translate(3740.333 -1244.288)"/>
        <path id="Path_11993" data-name="Path 11993" class="cls-1" d="M-3695.424 1291.4c-1.2.524-1.413-.187-1.429-1.143.804-.029.813.936 1.429 1.143z" transform="translate(3759.79 -1272.649)"/>
        <path id="Path_11994" data-name="Path 11994" class="cls-2" d="M-3856.728 1256.786a2.68 2.68 0 0 1-2.881 2.689 2.951 2.951 0 0 1-2.618-2.87 2.975 2.975 0 0 1 2.876-2.813 2.836 2.836 0 0 1 2.623 2.994z" transform="translate(3868.14 -1248.757)"/>
        <path id="Path_11995" data-name="Path 11995" class="cls-1" d="m-3832.382 1335.066 19.21-.044c-.3.489-.794.371-1.229.372q-8.45.013-16.9 0c-.39.006-.809.072-1.081-.328z" transform="translate(3848.585 -1301.978)"/>
        <path id="Path_11996" data-name="Path 11996" class="cls-2" d="M-3784.66 1348.149c-.144 2.118-.21 2.154-2.8 1.5-.514-.674-.6-1.642.009-1.973a2.32 2.32 0 0 1 2.791.473z" transform="translate(3819.426 -1310.091)"/>
        <path id="Path_11997" data-name="Path 11997" class="cls-2" d="M-3774.154 1350.192c-.745-.682-.26-1.142.241-1.684.871-.942 1.383.175 2.064.292.12 1.937-1.08 1.686-2.305 1.392z" transform="translate(3810.687 -1310.569)"/>
        <path id="Path_11998" data-name="Path 11998" class="cls-2" d="M-3718.281 1324.334a2.669 2.669 0 0 1-1.4-2.7 37.424 37.424 0 0 0-.007-3.937 2.528 2.528 0 0 1 1.764-2.927 38.555 38.555 0 0 1 8.135-.032l.415.736a10.226 10.226 0 0 1 .452 3.968c.027.637-.2 1.415.741 1.655a7.167 7.167 0 0 0 1.835.368c7.425-.077 14.85.047 22.276-.053 1.5-.02 1.525-.662 1.53-1.734.008-1.52-.375-3.07.271-4.553.967-.651 2.032-.2 3.051-.273a1.253 1.253 0 0 1 .477.837c.12 2 .086 4 .037 6s-.763 2.723-2.731 3.06a10.877 10.877 0 0 1-1.874.136c-7.948-.01-15.9.019-23.844-.029-1.346-.008-1.966.293-1.955 1.786.013 1.754-.74 2.335-2.394 2.236l-2.368-.09c-1.167-1.807-1.161-1.852.328-2.634.434-.114 1.109.094 1-.747-.63-.678-1.462-.521-2.249-.541a6.833 6.833 0 0 1-3.49-.532z" transform="translate(3774.755 -1288.557)"/>
        <path id="Path_11999" data-name="Path 11999" class="cls-1" d="M-3700.588 1330.646a2.158 2.158 0 0 0 2.034-2.637c-.152-1.51.33-1.911 1.859-1.895 8.07.084 16.141.042 24.212.04.629 0 1.258-.041 1.888-.046a2.087 2.087 0 0 0 2.313-2.349c.028-2.173.047-4.347.069-6.521.762-.058 1.024.5 1.062 1.058a41.007 41.007 0 0 1-.021 6.755 1.416 1.416 0 0 1-.4.732 2.441 2.441 0 0 1-2.014 1.052c-.583-.015-1.144.047-1.435.67a.659.659 0 0 1-.978 0c-.438-.536-1.053-.359-1.6-.36q-11.242-.017-22.484.006c-.732 0-1.6-.29-1.713 1.035-.257 2.984-.787 3.385-3.753 3.174-.487-.035-1.033.149-1.492-.251.773-.457 1.728.134 2.453-.463z" transform="translate(3763.847 -1290.324)"/>
        <path id="Path_12000" data-name="Path 12000" class="cls-2" d="m-3597.427 1319.024-.734-.409a2.069 2.069 0 0 1-.47-1.414c-.021-2.26-.008-4.519-.007-6.778a2.254 2.254 0 0 1 .461-1.422c.019-.225.02-.453.06-.674.115-.633-.343-1.667.333-1.823.875-.2 2.029-.536 2.785.509a5.217 5.217 0 0 1 .3 2.672c.023 2.44.014 4.88.006 7.32-.007 2.369-.39 2.646-2.734 2.019z" transform="translate(3695.445 -1283.152)"/>
        <path id="Path_12001" data-name="Path 12001" class="cls-1" d="M-3662.208 1316.238c.017 1.766.021 3.533.054 5.3.016.845-.3 1.229-1.205 1.225q-12.656-.059-25.31-.068a6.866 6.866 0 0 1 .035-4.776c.632.755.243 1.65.319 2.477a1.926 1.926 0 0 0 2.061 1.961c7.539-.067 15.08.238 22.618-.128 1.075-.052.854-.726.865-1.25.026-1.2-.074-2.394-.1-3.591-.007-.498-.115-1.088.663-1.15z" transform="translate(3754.698 -1289.672)"/>
        <path id="Path_12002" data-name="Path 12002" class="cls-1" d="m-3600.572 1314.154.016 9.615h-1.011l.015-6.959c0-.616.105-1.281-.653-1.586l-.093-.621z" transform="translate(3697.841 -1288.306)"/>
        <path id="Path_12003" data-name="Path 12003" class="cls-1" d="M-3595.117 1320.4a7.085 7.085 0 0 1 1.189-.036c1 .133 1.208-.322 1.2-1.247-.031-3.576.019-7.153.039-10.73.684.282.6.887.6 1.45 0 3.181.008 6.362 0 9.543 0 .6.155 1.447-.667 1.533-.783.087-1.819.718-2.361-.513z" transform="translate(3693.135 -1284.528)"/>
        <path id="Path_12004" data-name="Path 12004" class="cls-2" d="m-3594.457 1293.3-.033 1.716c-.734 1.326-1.771.618-2.733.407-.761-.32-.884-.725-.041-1.042.485-.182 1.049-.153 1.619-.36-.861-.458-2.38-.038-2.161-1.716.116-.888.748-1.087 1.5-.993.61.076 1.682-.466 1.42.944-.574.644.831.478.429 1.044z" transform="translate(3694.923 -1273.316)"/>
        <path id="Path_12005" data-name="Path 12005" class="cls-2" d="M-3613.9 1347.025h.979c.49.221 1.289-.17 1.436.727a1.567 1.567 0 0 1-.038 2.015 2.058 2.058 0 0 1-2.356.072 2.334 2.334 0 0 1-.021-2.814z" transform="translate(3705.741 -1309.84)"/>
        <path id="Path_12006" data-name="Path 12006" class="cls-1" d="M-3715.668 1342.947c1.585.018 3.17.063 4.754.041.763-.01 1.236.133.988 1.032a16.812 16.812 0 0 1-4.97-.346c-.332-.1-.976-.004-.772-.727z" transform="translate(3772.143 -1307.171)"/>
        <path id="Path_12007" data-name="Path 12007" class="cls-1" d="m-3689.2 1318.58-.035 4.776c-.9.152-.691-.521-.691-.977 0-1.71.029-3.42.047-5.13.947.074.539.841.679 1.331z" transform="translate(3755.268 -1290.334)"/>
        <path id="Path_12008" data-name="Path 12008" class="cls-1" d="M-3612.961 1351.215c1.379-.029 2.8-.015 2.395-2.087a1.376 1.376 0 0 1 .309 2.33 1.7 1.7 0 0 1-2.704-.243z" transform="translate(3704.826 -1311.22)"/>
        <path id="Path_12009" data-name="Path 12009" class="cls-1" d="m-3707.129 1314.372-8.135.032a.524.524 0 0 1-.163-.043 2.1 2.1 0 0 1-.213-.184c.082-.046.168-.136.246-.131 2.751.194 5.536-.446 8.265.326z" transform="translate(3772.1 -1288.193)"/>
        <path id="Path_12010" data-name="Path 12010" class="cls-1" d="M-3596.038 1300.42c.888-.288 1.911.328 2.733-.407.459-.174.213-.717.653-1.118 0 .816.316 1.7-.49 1.979-.945.326-2.098.708-2.896-.454z" transform="translate(3693.738 -1278.309)"/>
        <path id="Path_12011" data-name="Path 12011" class="cls-1" d="M-3704.5 1348.121c-1.374.721-.186 1.76-.328 2.634-1.676.2-.858-1.083-.975-1.728-.197-1.078.581-1.012 1.303-.906z" transform="translate(3765.718 -1310.524)"/>
        <path id="Path_12012" data-name="Path 12012" class="cls-1" d="m-3684.932 1297.221.078-1.163c.935 1.041.569 2.32.623 3.516.013.292-.053.3-.681-.141l-.02-2.212z" transform="translate(3751.979 -1276.45)"/>
        <path id="Path_12013" data-name="Path 12013" class="cls-1" d="M-3592.783 1294.594c-.522-.7-1.482-.174-2.51-.937l2.083-.107.658-.307c.081.478.238.968-.231 1.351z" transform="translate(3693.25 -1274.606)"/>
        <path id="Path_12014" data-name="Path 12014" class="cls-1" d="M-3858.294 1258.671c.015-1.735.641-2.221 2.235-1.758.595.173.893.486.667 1.113-.075.209-.3.376-.336.583-.105.593.92 1.263.268 1.644-.931.544-.612-.812-1.11-1.063-.372-.187-.656-.138-.742.33-.07.384-.062.927-.62.813-.648-.133-.275-.749-.357-1.149a2.6 2.6 0 0 1-.005-.513z" transform="translate(3865.581 -1250.694)"/>
        <path id="Path_12015" data-name="Path 12015" class="cls-1" d="M-3706.016 1325.135c.026 3.635.78 3.209-3.4 3.083a2.2 2.2 0 0 1-.346-1.606c0-1.577.393-1.957 2.007-1.965a2.294 2.294 0 0 1 1.739.488z" transform="translate(3768.248 -1295.18)"/>
        <path id="Path_12016" data-name="Path 12016" class="cls-1" d="M-3707.132 1324.252c-.114 0-.228.012-.342.012-3.04.007-3.04.007-3.055 3.071-1.595-.78-.663-2.182-.7-3.274-.033-.95.99-.692 1.62-.741s1.255 0 1.882 0c.694-.002.688.436.595.932z" transform="translate(3769.364 -1294.298)"/>
    </g>
</svg>
