<svg xmlns="http://www.w3.org/2000/svg" width="86.129" height="39.723" viewBox="0 0 86.129 39.723">
    <defs>
        <style>
            .cls-2{fill:#8a9ab1}
        </style>
    </defs>
    <g id="Group_10362" data-name="Group 10362" style="isolation:isolate">
        <path id="Path_12104" data-name="Path 12104" class="cls-2" d="M-4161.792 1689.68h14.868c.7 0 .7 0 .7.831v20.469c0 .77 0 .77-.653.771h-4.452c-.562 0-.563 0-.564-.681v-1.262c0-.131.063-.317-.071-.379s-.2.112-.294.2a7.556 7.556 0 0 1-4.436 2.1 7.4 7.4 0 0 1-6.178-2.243 10.414 10.414 0 0 1-3.064-7.742 10.793 10.793 0 0 1 1.806-6.017c.068-.1.218-.194.154-.345s-.215-.082-.327-.082h-10.218a.923.923 0 0 0-.995.735 1.1 1.1 0 0 0 .469 1.262c.886.683 1.792 1.332 2.679 2.013a11.068 11.068 0 0 1 2.471 2.547c2.273 3.342 1.209 7.886-2.2 9.42a5.227 5.227 0 0 1-2.172.486q-8.17-.009-16.339 0c-.565 0-.567 0-.567-.676v-14.207c0-.87-.209-1.207-.927-1.433a8.973 8.973 0 0 0-2.531-.136c-.143 0-.22.094-.226.262s-.005.311-.005.467v15.048c0 .673 0 .675-.568.676h-4.453c-.659 0-.659 0-.659-.757v-14.955c0-.749 0-.75-.619-.75h-2.385c-.641 0-.641 0-.641.735V1711.132c0 .619-.012.631-.532.631h-4.571c-.62 0-.621 0-.622-.714v-15c0-.745 0-.746-.628-.746h-7.871a1.025 1.025 0 0 0-.786.25 1.131 1.131 0 0 0 .147 1.7c.759.6 1.544 1.152 2.316 1.726a13.482 13.482 0 0 1 2.72 2.638 6.505 6.505 0 0 1 .093 7.937 4.972 4.972 0 0 1-3.95 2.194c-2.821.059-5.646.015-8.467.026-.312 0-.424-.133-.422-.489.007-1.527.01-3.053 0-4.58 0-.392.134-.506.452-.5 1.8.012 3.6.009 5.407 0a.971.971 0 0 0 1.041-1.1 1.115 1.115 0 0 0-.495-.9c-1.071-.835-2.2-1.563-3.236-2.462a10.466 10.466 0 0 1-2.138-2.422c-2.063-3.366-.8-7.794 2.619-9.2a6.086 6.086 0 0 1 2.345-.43q14.67-.011 29.339 0a5.779 5.779 0 0 1 4.579 1.984 5.562 5.562 0 0 1 1.359 3.808v10.095c0 .63 0 .633.523.633h7.991a.942.942 0 0 0 .977-.557 1.108 1.108 0 0 0-.348-1.411c-.92-.706-1.862-1.376-2.777-2.092a11.813 11.813 0 0 1-2.359-2.416 6.352 6.352 0 0 1 2.371-9.624 6.741 6.741 0 0 1 2.585-.419q7.36-.022 14.735-.012zm2.651 5.61-.05.117c.55.646 1.089 1.305 1.654 1.932a.467.467 0 0 1 0 .751c-.978 1.119-1.928 2.27-2.9 3.39a.443.443 0 0 0 0 .71c.81.921 1.61 1.852 2.387 2.809.262.323.409.283.655-.014.961-1.16 1.947-2.291 2.914-3.445.194-.232.33-.241.515 0 .24.312.5.6.755.9.4.484.8.973 1.213 1.469a.664.664 0 0 0 .1-.476c0-2.522-.006-5.045.01-7.567 0-.455-.124-.585-.5-.581-1.907.018-3.814.008-5.722.008z" transform="translate(4226.777 -1689.675)"/>
        <path id="Path_12105" data-name="Path 12105" class="cls-2" d="M-3549.687 2004.528a2.4 2.4 0 0 1 3.341-.829 3.381 3.381 0 0 1 1.569 2.939 5.507 5.507 0 0 1-.358 2.685 2.528 2.528 0 0 1-4.27.953c-.038-.041-.081-.076-.122-.114-.143.1-.087.259-.088.384-.006.856-.012 1.712 0 2.568.006.378-.08.577-.442.579s-.45-.187-.449-.57c.007-2.708 0-5.415 0-8.123 0-.374 0-.747-.009-1.12-.009-.334.17-.379.39-.375s.444-.01.437.367c-.002.168.001.335.001.656zm.074 2.658a5.1 5.1 0 0 0 .156 1.521c.25.932.733 1.441 1.439 1.514a1.74 1.74 0 0 0 2.021-1.165 4.832 4.832 0 0 0 .01-3.655 1.788 1.788 0 0 0-1.9-1.216 1.8 1.8 0 0 0-1.574 1.528 4.812 4.812 0 0 0-.153 1.474z" transform="translate(3604.328 -1973.97)"/>
        <path id="Path_12106" data-name="Path 12106" class="cls-2" d="M-3706.761 1982.314c-.729 0-1.457-.013-2.185.007-.332.009-.477-.1-.476-.524q.015-4.741 0-9.482c0-.375.1-.525.435-.521 1.444.015 2.888.01 4.332 0 .266 0 .426.066.427.434s-.155.445-.423.444c-1.113-.007-2.225 0-3.338 0-.52 0-.521 0-.521.631 0 .872.011 1.744-.006 2.616-.007.372.113.488.418.485 1.086-.013 2.172 0 3.258-.006.262 0 .432.073.437.436s-.146.444-.419.441c-1.06-.011-2.12.016-3.179-.014-.4-.011-.534.117-.52.6.03 1.011.027 2.024 0 3.035-.011.445.13.557.483.552 1.179-.019 2.358 0 3.537-.01.282 0 .451.072.442.466-.008.344-.151.416-.4.414-.766-.009-1.535-.005-2.302-.004z" transform="translate(3750.592 -1945.375)"/>
        <path id="Path_12107" data-name="Path 12107" class="cls-2" d="M-3417.849 2007.594c-.635 0-1.271.015-1.906-.006-.342-.011-.433.153-.411.531.085 1.479.954 2.416 2.2 2.35a1.675 1.675 0 0 0 1.472-1.222.569.569 0 0 1 .744-.368c.2.085.108.246.074.385a2.467 2.467 0 0 1-2.308 1.979c-1.972.111-3.193-1.384-3.116-3.808a5.786 5.786 0 0 1 .438-2.207 2.656 2.656 0 0 1 3.02-1.668 2.666 2.666 0 0 1 1.991 2.417c.067.363.073.741.127 1.108s-.064.516-.379.511c-.648-.011-1.3 0-1.946 0zm-.479-.774h1.546c.17 0 .3-.029.334-.287.142-1.19-.911-2.433-1.932-2.266-.928.152-1.485.838-1.727 2.076-.068.352-.006.491.311.482.49-.015.979-.003 1.468-.005z" transform="translate(3485.217 -1974.126)"/>
        <path id="Path_12108" data-name="Path 12108" class="cls-2" d="M-3272.393 2003.745a2.293 2.293 0 0 1 1.316.283 1.78 1.78 0 0 1 .851 1.276c.035.188.126.456-.111.508s-.533.194-.7-.193c-.441-1.036-1.181-1.377-2.086-.957a1.017 1.017 0 0 0-.649.955 1.019 1.019 0 0 0 .557 1.025 8.156 8.156 0 0 0 1.246.471 8.828 8.828 0 0 1 .939.375 1.728 1.728 0 0 1 1 1.6 2.05 2.05 0 0 1-.824 1.895 2.81 2.81 0 0 1-3.016.119 1.882 1.882 0 0 1-.947-1.611c-.017-.192-.01-.411.219-.4.212.012.487-.165.6.237.367 1.276 1.394 1.76 2.433 1.147a1.27 1.27 0 0 0 .625-1.159 1.022 1.022 0 0 0-.658-1c-.435-.187-.882-.333-1.323-.5a4.4 4.4 0 0 1-.958-.446 1.793 1.793 0 0 1-.8-1.644 1.861 1.861 0 0 1 .864-1.66 2.331 2.331 0 0 1 1.422-.321z" transform="translate(3350.575 -1974.33)"/>
        <path id="Path_12109" data-name="Path 12109" class="cls-2" d="M-3340.228 2003.732a2.219 2.219 0 0 1 1.361.309 1.743 1.743 0 0 1 .815 1.254c.032.2.115.487-.167.515-.223.023-.5.173-.648-.227a1.455 1.455 0 0 0-2.205-.876 1.037 1.037 0 0 0-.53.913 1 1 0 0 0 .448.92 4.012 4.012 0 0 0 1.079.463c.379.138.764.259 1.133.431a1.722 1.722 0 0 1 1.082 1.665 2.037 2.037 0 0 1-1.048 2.017 2.918 2.918 0 0 1-2.6.075 1.958 1.958 0 0 1-1.126-1.62c-.028-.191-.1-.458.154-.484.233-.024.539-.2.672.242.367 1.212 1.127 1.63 2.218 1.227a1.2 1.2 0 0 0 .816-1.13 1.013 1.013 0 0 0-.69-1.151c-.443-.2-.908-.335-1.363-.5a3.987 3.987 0 0 1-.883-.418 1.815 1.815 0 0 1-.8-1.741 1.829 1.829 0 0 1 .937-1.608 2.377 2.377 0 0 1 1.345-.276z" transform="translate(3413.019 -1974.316)"/>
        <path id="Path_12110" data-name="Path 12110" class="cls-2" d="M-3628.943 2012.358c-.317.074-.524-.1-.709-.384-.5-.781-1.031-1.542-1.534-2.324-.176-.273-.291-.3-.47 0-.469.772-.958 1.529-1.44 2.291a.915.915 0 0 1-1.079.412c-.25-.108-.052-.251.008-.344.62-.951 1.249-1.895 1.874-2.841.469-.71.41-.553.013-1.156-.576-.874-1.155-1.744-1.73-2.619-.062-.1-.178-.19-.137-.318.052-.163.2-.1.316-.117a.84.84 0 0 1 .908.489c.425.712.912 1.374 1.356 2.072.181.285.288.274.463-.009.427-.693.9-1.348 1.313-2.052a.831.831 0 0 1 .9-.5c.114.017.266-.049.32.109s-.083.25-.153.354c-.6.906-1.2 1.823-1.831 2.7a.648.648 0 0 0 0 .9c.641.911 1.248 1.856 1.86 2.794.091.138.3.27.2.461-.088.173-.298.06-.448.082z" transform="translate(3681.446 -1975.424)"/>
        <path id="Path_12111" data-name="Path 12111" class="cls-2" d="M-3460.674 2007.5v-3.078c0-.288-.028-.572.338-.578.3-.006.534.039.5.492-.007.087-.021.208.069.247.109.047.162-.079.221-.154a1.845 1.845 0 0 1 1.7-.7c.379.029.283.368.289.629s-.125.323-.339.3c-1.092-.1-1.827.651-1.862 1.968-.036 1.351-.024 2.7-.015 4.057 0 .406-.092.6-.472.578-.308-.015-.422-.139-.418-.5.01-1.088 0-2.177 0-3.265z" transform="translate(3521.639 -1974.316)"/>
        <path id="Path_12112" data-name="Path 12112" class="cls-2" d="M-3188.052 1881.418a1.944 1.944 0 0 1-1.864 2.153 1.983 1.983 0 0 1-1.907-2.122 2.031 2.031 0 0 1 1.9-2.2 2.019 2.019 0 0 1 1.871 2.169zm-.42.051c.013-1.067-.573-1.791-1.458-1.8a1.564 1.564 0 0 0-1.471 1.7 1.575 1.575 0 0 0 1.428 1.79 1.536 1.536 0 0 0 1.501-1.69z" transform="translate(3274.182 -1861.497)"/>
        <path id="Path_12113" data-name="Path 12113" class="cls-2" d="M-3177.978 1888.959a2.629 2.629 0 0 1 0-.325c.039-.309-.147-.748.136-.9a1.28 1.28 0 0 1 1.083.013.664.664 0 0 1 .294.915.814.814 0 0 0-.058.724 3.922 3.922 0 0 1 .095.593c.019.125.043.261-.1.3a.214.214 0 0 1-.285-.174c-.045-.177-.065-.363-.1-.544-.049-.264-.177-.407-.419-.382s-.215.248-.241.447c-.031.231.124.639-.208.63s-.17-.411-.2-.646a6.223 6.223 0 0 1 .003-.651z" transform="translate(3261.458 -1869.082)"/>
    </g>
</svg>
