<svg xmlns="http://www.w3.org/2000/svg" width="99.455" height="34.808" viewBox="0 0 99.455 34.808">
    <defs>
        <style>
            .cls-1{fill:#8a9ab1}
        </style>
    </defs>
    <g id="Group_10364" data-name="Group 10364">
        <path id="Path_11907" data-name="Path 11907" class="cls-1" d="M-666.919 923.391h-47.566c-2.179 0-2.183 0-2.183-2.107v-30.786c0-1.9.015-1.913 1.948-1.913h95.548c1.947 0 1.955.008 1.956 1.886v31.063c0 1.833-.017 1.854-1.86 1.855q-23.924.005-47.843.002zm9.719-25.8c-2.751 0-4.968-.009-7.186 0-1.749.008-1.934.184-1.937 1.891q-.014 6.513 0 13.027c0 1.64.218 1.859 1.833 1.863 4.111.01 8.223.02 12.334-.008a10.16 10.16 0 0 0 4.435-.941 3.784 3.784 0 0 0 2.378-3.717c-.035-2.4 0-4.8-.006-7.206-.006-2.932-.941-4.093-3.815-4.654-2.836-.546-5.715-.094-8.036-.251zm-32.467 8.3c0 2.262.045 4.525-.017 6.785-.035 1.253.438 1.735 1.7 1.721 4.153-.044 8.309 0 12.463-.027a11.421 11.421 0 0 0 3.67-.623 4.24 4.24 0 0 0 3.148-4.366q.028-3.6 0-7.2c-.017-2.357-.955-3.589-3.241-4.177a10.9 10.9 0 0 0-2.593-.379c-4.523-.041-9.047 0-13.569-.046-1.246-.014-1.6.518-1.572 1.667.048 2.213.011 4.43.011 6.646zm-10.2 1.292v-.009h6.653c.759 0 1.422-.154 1.465-1.081.049-1.02-.663-1.2-1.468-1.231-.415-.015-.832-.01-1.247-.01-3.927 0-7.853.007-11.78-.012-.518 0-1.141.191-1.473-.462a3.042 3.042 0 0 1 2.135-4.378 18.064 18.064 0 0 1 3.307-.283c3 .026 6 .02 9.007.019.644 0 1.236-.117 1.246-.948.009-.812-.461-1.154-1.225-1.177-.138 0-.277-.012-.415-.01-3.65 0-7.3-.008-10.948.02a8.427 8.427 0 0 0-3.747.872 3.894 3.894 0 0 0-2.325 3.648q-.033 3.88 0 7.76a3.591 3.591 0 0 0 2.519 3.6 9.034 9.034 0 0 0 1.849.571c4.459.635 8.945.2 13.419.29a1.053 1.053 0 0 0 1.089-.886 1.029 1.029 0 0 0-.306-1.133 2.094 2.094 0 0 0-1.461-.287c-3.649-.009-7.3.02-10.948-.023-2.716-.031-3.394-.836-3.31-3.544.029-.94.359-1.329 1.313-1.313 2.218.032 4.436.008 6.653.008zm58.392-9.612c-.891.064-1.474-.074-1.732.513-.25.567.13.969.5 1.326a61.506 61.506 0 0 0 4.836 4.552c2.719 2.1 4.078 4.619 3.425 8.078a5.761 5.761 0 0 0 0 .968 1.174 1.174 0 0 0 1.34 1.363c.91 0 1.374-.4 1.369-1.333-.006-1.154.09-2.315 0-3.46a4.277 4.277 0 0 1 1.686-3.837c2.284-2.011 4.409-4.2 6.589-6.33.349-.342.854-.681.611-1.276-.236-.577-.811-.5-1.317-.532a2.545 2.545 0 0 0-1.954.875c-1.994 1.921-4.028 3.8-5.994 5.751-.676.668-1.143.7-1.824.02-1.932-1.919-3.922-3.778-5.88-5.671-.58-.56-1.171-1.061-1.653-1.006z" transform="translate(716.669 -888.584)"/>
        <path id="Path_11921" data-name="Path 11921" class="cls-1" d="M-663.61 910.515c-2.23 0-4.029-.029-5.826.011-.954.022-1.31-.364-1.3-1.308q.045-4.842 0-9.686c-.009-.958.389-1.322 1.314-1.318 3.414.02 6.828 0 10.24.025a7.8 7.8 0 0 1 1.773.276c1.6.39 2.06.972 2.07 2.607q.019 3.182 0 6.365c-.01 1.769-.548 2.487-2.349 2.852-2.099.424-4.236.069-5.922.176z" transform="translate(723.962 -887.055)"/>
        <path id="Path_11922" data-name="Path 11922" class="cls-1" d="M-684.306 910.522c-1.8 0-3.6-.029-5.4.013-.95.022-1.331-.37-1.326-1.3.018-3.228.008-6.457.007-9.685 0-.727.2-1.31 1.06-1.3 3.916.045 7.842-.289 11.743.182 2.246.271 2.7.912 2.72 3.2.015 1.845.019 3.69 0 5.533-.026 2.326-.863 3.221-3.275 3.329-1.84.083-3.688.017-5.533.017z" transform="translate(720.741 -887.061)"/>
    </g>
</svg>
