<svg xmlns="http://www.w3.org/2000/svg" width="24.329" height="19.95" viewBox="0 0 24.329 19.95">
  <defs>
    <style>
      .cls-1 {
        fill: #172234;
        stroke: #8e9cb4;
        stroke-width: 2px;
      }
    </style>
  </defs>
  <path id="Path_12140" data-name="Path 12140" class="cls-1" d="M-2.159-12.152c.013.187.013.373.013.56A12.162,12.162,0,0,1-14.391.653,12.163,12.163,0,0,1-21-1.279a8.9,8.9,0,0,0,1.039.053,8.619,8.619,0,0,0,5.343-1.839,4.312,4.312,0,0,1-4.024-2.985,5.428,5.428,0,0,0,.813.067A4.552,4.552,0,0,0-16.7-6.129a4.3,4.3,0,0,1-3.451-4.224v-.053A4.334,4.334,0,0,0-18.2-9.86a4.3,4.3,0,0,1-1.919-3.584,4.272,4.272,0,0,1,.586-2.172,12.234,12.234,0,0,0,8.874,4.5,4.859,4.859,0,0,1-.107-.986,4.3,4.3,0,0,1,4.3-4.3,4.294,4.294,0,0,1,3.145,1.359A8.474,8.474,0,0,0-.586-16.083a4.292,4.292,0,0,1-1.892,2.372A8.628,8.628,0,0,0,0-14.377a9.252,9.252,0,0,1-2.159,2.225Z" transform="translate(21.541 18.297)"/>
</svg>
