<svg xmlns="http://www.w3.org/2000/svg" width="18.375" height="18.375" viewBox="0 0 18.375 18.375">
  <defs>
    <style>
      .cls-1 {
        fill: #8e9cb4;
      }
    </style>
  </defs>
  <path id="Path_12138" data-name="Path 12138" class="cls-1" d="M-2.752-14.392a9.037,9.037,0,0,0-6.439-2.67A9.116,9.116,0,0,0-18.3-7.957,9.115,9.115,0,0,0-17.083-3.4l-1.292,4.717L-13.547.045A9.078,9.078,0,0,0-9.2,1.153h0A9.193,9.193,0,0,0,0-7.953a9.141,9.141,0,0,0-2.752-6.439ZM-9.192-.381a7.555,7.555,0,0,1-3.855-1.054l-.275-.164-2.863.751.763-2.793-.18-.287a7.543,7.543,0,0,1-1.157-4.028,7.579,7.579,0,0,1,7.571-7.567,7.5,7.5,0,0,1,5.348,2.219,7.6,7.6,0,0,1,2.3,5.353A7.653,7.653,0,0,1-9.192-.381ZM-5.041-6.05c-.226-.115-1.345-.664-1.554-.738s-.361-.115-.513.115-.587.738-.722.894-.267.172-.492.057a6.193,6.193,0,0,1-3.1-2.707c-.234-.4.234-.373.669-1.243a.422.422,0,0,0-.021-.4c-.057-.115-.513-1.235-.7-1.69s-.373-.381-.513-.39-.283-.008-.435-.008a.843.843,0,0,0-.607.283,2.557,2.557,0,0,0-.8,1.9A4.457,4.457,0,0,0-12.9-7.621,10.167,10.167,0,0,0-9.007-4.184a4.452,4.452,0,0,0,2.732.57A2.33,2.33,0,0,0-4.741-4.7,1.9,1.9,0,0,0-4.61-5.779C-4.663-5.882-4.815-5.939-5.041-6.05Z" transform="translate(18.375 17.063)"/>
</svg>
