<svg xmlns="http://www.w3.org/2000/svg" width="20" height="16.244" viewBox="0 0 20 16.244">
    <path data-name="Path 12130" d="M-2.056-11.574c.013.178.013.355.013.533A11.583 11.583 0 0 1-13.706.622 11.583 11.583 0 0 1-20-1.218a8.48 8.48 0 0 0 .99.051 8.209 8.209 0 0 0 5.089-1.751 4.106 4.106 0 0 1-3.833-2.843 5.169 5.169 0 0 0 .774.063 4.335 4.335 0 0 0 1.079-.14 4.1 4.1 0 0 1-3.287-4.022v-.051a4.128 4.128 0 0 0 1.853.52 4.1 4.1 0 0 1-1.827-3.409 4.068 4.068 0 0 1 .558-2.069 11.651 11.651 0 0 0 8.452 4.289 4.627 4.627 0 0 1-.1-.939 4.1 4.1 0 0 1 4.1-4.1 4.089 4.089 0 0 1 2.992 1.292 8.07 8.07 0 0 0 2.6-.99 4.088 4.088 0 0 1-1.8 2.259A8.217 8.217 0 0 0 0-13.693a8.811 8.811 0 0 1-2.056 2.119z" transform="translate(20 15.622)" style="fill:#4a5a71"/>
</svg>
