<svg xmlns="http://www.w3.org/2000/svg" width="25" height="21.874" viewBox="0 0 25 21.874">
    <path data-name="Path 12132" d="M-7.812-12.544h-3.125a1.554 1.554 0 0 0-1.563 1.519V-.132a1.526 1.526 0 0 0 1.563 1.519h3.125A1.554 1.554 0 0 0-6.25-.132v-10.85a1.59 1.59 0 0 0-1.562-1.562zM12.5-10.791a3.273 3.273 0 0 0-3.27-3.268H4.354a9.466 9.466 0 0 0 .724-2.895 3.356 3.356 0 0 0-3.421-3.358c-2.276 0-2.9 1.584-3.4 2.856-1.546 3.931-2.946 3.242-2.946 4.564a1.172 1.172 0 0 0 1.174 1.172 1.166 1.166 0 0 0 .731-.257c3.748-3 2.831-5.991 4.441-5.991a1.026 1.026 0 0 1 1.077 1.015 10.083 10.083 0 0 1-1.248 3.5 1.169 1.169 0 0 0-.15.572 1.135 1.135 0 0 0 1.172 1.128h6.72a.994.994 0 0 1 .929.966.924.924 0 0 1-.863.914A1.172 1.172 0 0 0 8.2-8.708c0 .755.556.779.556 1.412 0 1.239-1.71.6-1.71 2.058 0 .548.312.636.312 1.086 0 1.106-1.454.672-1.454 1.984 0 .22.054.291.054.462a.927.927 0 0 1-.926.925H2.469a5.86 5.86 0 0 1-3.491-1.163l-1.79-1.343a1.165 1.165 0 0 0-.7-.235 1.175 1.175 0 0 0-1.176 1.174 1.162 1.162 0 0 0 .469.934l1.79 1.344a8.22 8.22 0 0 0 4.9 1.633h2.565A3.274 3.274 0 0 0 8.3-1.475a3.245 3.245 0 0 0 1.405-2.677 3.221 3.221 0 0 0-.031-.448A3.266 3.266 0 0 0 11.1-7.3a3.24 3.24 0 0 0-.092-.764 3.323 3.323 0 0 0 1.492-2.727z" transform="translate(12.5 20.312)" style="fill:#fdbc63"/>
</svg>
