<svg xmlns="http://www.w3.org/2000/svg" width="18.385" height="18.381" viewBox="0 0 18.385 18.381">
  <defs>
    <style>
      .cls-1 {
        fill: #8e9cb4;
      }
    </style>
  </defs>
  <path id="Path_12141" data-name="Path 12141" class="cls-1" d="M-9.183-12.592A4.705,4.705,0,0,0-13.9-7.879,4.705,4.705,0,0,0-9.183-3.166,4.705,4.705,0,0,0-4.471-7.879,4.705,4.705,0,0,0-9.183-12.592Zm0,7.777a3.069,3.069,0,0,1-3.064-3.064,3.067,3.067,0,0,1,3.064-3.064A3.067,3.067,0,0,1-6.12-7.879,3.069,3.069,0,0,1-9.183-4.815Zm6-7.969a1.1,1.1,0,0,1-1.1,1.1,1.1,1.1,0,0,1-1.1-1.1,1.1,1.1,0,0,1,1.1-1.1A1.1,1.1,0,0,1-3.179-12.785Zm3.121,1.116A5.44,5.44,0,0,0-1.542-15.52a5.476,5.476,0,0,0-3.851-1.485c-1.518-.086-6.066-.086-7.584,0a5.468,5.468,0,0,0-3.851,1.481,5.458,5.458,0,0,0-1.485,3.851c-.086,1.518-.086,6.066,0,7.584A5.44,5.44,0,0,0-16.829-.238a5.483,5.483,0,0,0,3.851,1.485c1.518.086,6.066.086,7.584,0A5.44,5.44,0,0,0-1.542-.238,5.476,5.476,0,0,0-.057-4.089c.086-1.518.086-6.062,0-7.58ZM-2.018-2.461A3.1,3.1,0,0,1-3.765-.714c-1.21.48-4.081.369-5.418.369S-13.4-.238-14.6-.714a3.1,3.1,0,0,1-1.747-1.747c-.48-1.21-.369-4.081-.369-5.418s-.107-4.212.369-5.418A3.1,3.1,0,0,1-14.6-15.045c1.21-.48,4.081-.369,5.418-.369s4.212-.107,5.418.369A3.1,3.1,0,0,1-2.018-13.3c.48,1.21.369,4.081.369,5.418S-1.538-3.667-2.018-2.461Z" transform="translate(18.378 17.07)"/>
</svg>
