<svg xmlns="http://www.w3.org/2000/svg" width="28.125" height="21.877" viewBox="0 0 28.125 21.877">
    <path data-name="Path 12133" d="M0-20.312A14.066 14.066 0 0 0-14.062-6.25a14.018 14.018 0 0 0 1.9 7.07 1.554 1.554 0 0 0 1.343.745h21.634A1.553 1.553 0 0 0 12.158.82a13.987 13.987 0 0 0 1.9-7.07A14.066 14.066 0 0 0 0-20.312zM0-.781a1.955 1.955 0 0 1-1.953-1.953A1.954 1.954 0 0 1 0-4.687a1.955 1.955 0 0 1 1.953 1.953A1.954 1.954 0 0 1 0-.781zm10.366 0H3.809A4.254 4.254 0 0 0 4.3-2.734a4.276 4.276 0 0 0-1.21-2.979l3.75-5.758a1.172 1.172 0 0 0-.34-1.622 1.173 1.173 0 0 0-1.622.342L1.054-6.887A4.273 4.273 0 0 0 0-7.031a4.3 4.3 0 0 0-4.3 4.3 4.245 4.245 0 0 0 .49 1.953h-6.557a11.672 11.672 0 0 1-1.352-5.472A11.728 11.728 0 0 1 0-17.969 11.728 11.728 0 0 1 11.719-6.25a11.7 11.7 0 0 1-1.353 5.469z" transform="translate(14.063 20.313)" style="fill:#fdbc63"/>
</svg>
