<svg xmlns="http://www.w3.org/2000/svg" width="21.875" height="25" viewBox="0 0 21.875 25">
    <path data-name="Path 12125" d="m3.838-6.895-2.2 4.407-.857-2.981 1.563-2.343h-4.688l1.563 2.343-.852 2.983-2.2-4.409a8.589 8.589 0 0 0-7.1 8.457 1.563 1.563 0 0 0 1.558 1.563h18.75a1.563 1.563 0 0 0 1.563-1.562 8.589 8.589 0 0 0-7.1-8.457zM-8.545.781a6.229 6.229 0 0 1 3.5-4.851L-2.622.781zm11.167 0L5.047-4.07a6.23 6.23 0 0 1 3.5 4.851zM0-9.375a6.25 6.25 0 0 0 6.25-6.25A6.25 6.25 0 0 0 0-21.875a6.25 6.25 0 0 0-6.25 6.25A6.25 6.25 0 0 0 0-9.375zm0-10.156a3.911 3.911 0 0 1 3.906 3.906A3.911 3.911 0 0 1 0-11.719a3.911 3.911 0 0 1-3.906-3.906A3.911 3.911 0 0 1 0-19.531z" transform="translate(10.938 21.875)" style="fill:#fdbc63"/>
</svg>
